<svg xmlns="http://www.w3.org/2000/svg" xmlns:xlink="http://www.w3.org/1999/xlink" width="1726" height="270" viewBox="0 0 1726 270"><defs><clipPath id="b"><rect width="1726" height="270"/></clipPath></defs><g id="a" clip-path="url(#b)"><g transform="translate(0.64 -236.006)"><path d="M238.993,250.626l-.348,237.533H209.214V277.289l-69.943,210.87H111.915L41.972,278.329v209.83H12.541l-.348-237.533H60.67l64.749,200.485,64.752-200.485Z" transform="translate(0 4.061)" fill="#1b1b1b"/><path d="M261.665,276.589V446.254H232.924l-1.383-24.93c-10.388,15.58-28.048,26.66-52.286,26.66-37.048,0-59.9-23.544-59.9-60.593v-110.8H150.17v106.3c0,24.93,13.5,39.127,38.089,39.127s42.935-17.313,42.935-46.746V276.589Z" transform="translate(172.958 45.966)" fill="#1b1b1b"/><path d="M324.014,401.272c0,28.046-24.24,47.782-67.865,47.782-46.746,0-66.827-18.7-67.523-51.59l28.048.345c1.731,16.275,12.119,25.278,39.819,25.278,26.315,0,37.4-9,37.4-21.814,0-39.474-100.76-11.428-100.76-77.56,0-28.048,23.89-47.784,65.094-47.784,40.86,0,61.981,18.7,63.366,51.593l-28.393-.348c-1.385-16.62-14.2-25.278-35.666-25.278-23.2,0-34.278,8.313-34.278,21.817C223.254,362.49,324.014,333.059,324.014,401.272Z" transform="translate(284.766 44.897)" fill="#1b1b1b"/><path d="M409.914,370.455H283.186c2.423,32.2,20.774,52.631,50.552,52.631s41.2-15.582,44.321-29.434h30.817c-6.579,30.817-30.124,55.4-75.485,55.4-52.978,0-81.717-36.356-81.717-86.218,0-50.9,33.588-86.908,81.024-86.908s77.215,32.2,77.215,86.908ZM283.876,347.948H379.1c-3.809-30.472-20.429-46.054-46.051-46.054C307.076,301.895,288.725,319.555,283.876,347.948Z" transform="translate(386.526 44.897)" fill="#1b1b1b"/><path d="M548.893,251.156,548.548,487.3H528.12V270.547L449.519,487.3H430.128l-78.6-216.757V487.3H331.1l-.348-236.148h33.59l75.482,211.563,75.485-211.563Z" transform="translate(514.158 4.916)" fill="#1b1b1b"/><path d="M451.932,282.249A16.275,16.275,0,1,1,468.2,265.974,16.039,16.039,0,0,1,451.932,282.249Zm-11.081,39.127h21.121v168.28H440.851Z" transform="translate(683.478 2.565)" fill="#1b1b1b"/><path d="M606.671,341.551V446.467H585.55V345.708c0-31.857-16.622-51.245-45.709-51.245-33.237,0-52.283,23.89-52.283,50.2v101.8H466.782V278.187H486.52l.693,29.086c10.385-18.008,30.124-30.817,57.825-30.817C583.124,276.457,606.671,300.346,606.671,341.551Z" transform="translate(733.714 45.753)" fill="#1b1b1b"/><path d="M695.174,248.11V492.22H674.743l-.345-34.28c-10.733,21.121-32.55,36.011-61.978,36.011-44.668,0-75.833-32.892-75.833-84.14,0-51.593,31.512-87.6,77.911-87.6,29.429,0,49.512,13.5,59.9,33.933V248.11ZM674.4,414.312V401.848c0-31.857-22.162-61.633-58.865-61.633-34.278,0-57.477,28.393-57.477,69.251,0,40.512,22.852,66.135,56.442,66.135C651.2,475.6,674.4,445.476,674.4,414.312Z" transform="translate(846.381 0)" fill="#1b1b1b"/><path d="M742.482,401.8c0,28.046-24.93,46.4-64.057,46.4-41.55,0-64.4-18-64.749-49.86h19.391c1.038,19.736,16.272,31.509,45.358,31.509,27.7,0,43.283-10.733,43.283-28.046,0-47.091-103.186-14.544-103.186-79.641,0-28.046,24.24-45.7,61.633-45.7,37.051,0,58.865,17.658,59.558,48.822H720.325c-1.04-20.431-16.97-30.817-40.512-30.817-24.935,0-40.512,10.04-40.512,27.7C639.3,368.214,742.482,333.589,742.482,401.8Z" transform="translate(970.804 45.753)" fill="#1b1b1b"/></g></g></svg>