<?xml version="1.0" encoding="utf-8"?>
<!-- Generator: Adobe Illustrator 24.1.1, SVG Export Plug-In . SVG Version: 6.00 Build 0)  -->
<svg version="1.1" id="Layer_1" xmlns="http://www.w3.org/2000/svg" xmlns:xlink="http://www.w3.org/1999/xlink" x="0px" y="0px"
	 viewBox="0 0 673 112" style="enable-background:new 0 0 673 112;" xml:space="preserve">
<style type="text/css">
	.st0{fill:#1B1B1B;}
	.st1{fill:#5A24B2;}
	.st2{fill:none;stroke:#5A24B2;stroke-width:8;stroke-miterlimit:10;}
	.st3{fill:#3A1484;}
	.st4{fill:#FFFFFF;}
</style>
<text transform="matrix(1 0 0 1 8.7271 -121.5781)"><tspan x="0" y="0" class="st0" style="font-family:'LotaGrotesque-SemiBold'; font-size:118.8234px;">Muse</tspan><tspan x="291.47" y="0" class="st0" style="font-family:'LotaGrotesque-Light'; font-size:118.8234px;">Minds</tspan></text>
<g>
	<path class="st0" d="M222.32,22.83l-0.1,70.27h-12.09V36.35L191.29,93.1h-9.32l-18.85-56.75V93.1h-12.09l-0.1-70.27h17.62
		l18.13,55.42l18.03-55.42H222.32z"/>
	<path class="st0" d="M280.91,42.91V93.1h-11.98l-0.41-7.27c-2.97,4.61-7.99,7.79-14.95,7.79c-11.37,0-17.41-7.68-17.41-18.23V42.91
		h12.5v29.81c0,6.25,3.28,10.14,9.53,10.14c5.84,0,10.24-4.51,10.24-11.47V42.91H280.91z"/>
	<path class="st0" d="M312.05,93.61c-13.93,0-20.79-5.74-20.9-15.88l10.86,0.1c0.31,4.3,3.18,6.66,10.04,6.66
		c6.45,0,9.22-1.95,9.22-5.12c0-10.14-28.99-2.25-28.99-22.33c0-9.01,7.89-14.65,20.69-14.65c12.6,0,19.46,5.74,19.67,15.67h-10.96
		c-0.31-4.4-3.48-6.56-8.81-6.56c-5.84,0-8.5,2.05-8.5,5.22c0,9.94,28.99,1.64,28.99,22.33C333.46,88.08,325.37,93.61,312.05,93.61z
		"/>
	<path class="st0" d="M389.28,70.87h-35.95c0.92,8.19,5.74,12.8,12.91,12.8c7.48,0,10.24-3.89,11.06-6.97h11.78
		c-1.74,8.81-8.71,16.9-23.35,16.9c-15.36,0-24.69-10.65-24.69-25.51c0-15.16,10.45-25.71,24.79-25.71
		c14.85,0,23.46,10.24,23.46,25.91V70.87z M353.53,63.19h23.87c-1.02-7.68-5.22-11.17-11.47-11.17
		C359.68,52.02,354.87,55.82,353.53,63.19z"/>
	<path class="st0" d="M467.64,23.24l-0.1,69.86h-6.04V28.98L438.24,93.1h-5.74l-23.25-64.12V93.1h-6.04l-0.1-69.86h9.94l22.33,62.58
		l22.33-62.58H467.64z"/>
	<path class="st0" d="M489.05,31.74c-2.66,0-4.81-2.05-4.81-4.81c0-2.77,2.15-4.81,4.81-4.81c2.66,0,4.81,2.05,4.81,4.81
		C493.86,29.7,491.71,31.74,489.05,31.74z M485.77,43.32h6.25V93.1h-6.25V43.32z"/>
	<path class="st0" d="M549.68,62.06V93.1h-6.25V63.29c0-9.42-4.92-15.16-13.52-15.16c-9.83,0-15.47,7.07-15.47,14.85V93.1h-6.15
		V43.32h5.84l0.21,8.6c3.07-5.33,8.91-9.12,17.11-9.12C542.72,42.81,549.68,49.87,549.68,62.06z"/>
	<path class="st0" d="M609.2,20.89V93.1h-6.04l-0.1-10.14c-3.18,6.25-9.63,10.65-18.34,10.65c-13.21,0-22.43-9.73-22.43-24.89
		c0-15.26,9.32-25.91,23.05-25.91c8.71,0,14.65,3.99,17.72,10.04V20.89H609.2z M603.05,70.05v-3.69c0-9.42-6.56-18.23-17.41-18.23
		c-10.14,0-17,8.4-17,20.49c0,11.98,6.76,19.56,16.7,19.56C596.19,88.18,603.05,79.27,603.05,70.05z"/>
	<path class="st0" d="M660,79.89c0,8.3-7.38,13.73-18.95,13.73c-12.29,0-19.05-5.33-19.15-14.75h5.74
		c0.31,5.84,4.81,9.32,13.42,9.32c8.19,0,12.8-3.18,12.8-8.3c0-13.93-30.53-4.3-30.53-23.56c0-8.3,7.17-13.52,18.23-13.52
		c10.96,0,17.41,5.22,17.62,14.44h-5.74c-0.31-6.04-5.02-9.12-11.98-9.12c-7.37,0-11.98,2.97-11.98,8.19
		C629.47,69.95,660,59.71,660,79.89z"/>
</g>
<g>
	<path class="st0" d="M-843.74-123.06h-13.32v-46.71c0-6.66-4.84-12-12.1-12c-7.36,0-11.9,5.35-11.9,12v46.71h-13.42v-46.71
		c0-6.66-4.74-12-12-12c-7.36,0-12.1,5.35-12.1,12v46.71h-13.21v-46.5c0-14.02,10.39-25.22,25.32-25.22
		c7.77,0,14.32,3.53,18.66,9.08c4.24-5.55,11-9.08,18.66-9.08c15.03,0,25.42,11.2,25.42,25.22V-123.06z"/>
	<path class="st0" d="M-808.84-121.85c-14.53,0-23.1-9.58-23.1-23.2v-29.96h13.32v30.36c0,2.93,1.01,9.89,9.78,9.89
		c5.85,0,10.09-4.14,10.09-9.89v-30.36h13.32v29.96C-785.43-131.84-794.71-121.85-808.84-121.85z"/>
	<path class="st0" d="M-752.65-121.85c-13.21,0-23-6.96-24.61-18.16h13.52c1.82,4.44,7.16,6.05,11.1,6.05
		c5.35,0,9.38-1.61,9.38-4.64c0-2.93-1.82-4.14-10.89-5.55c-9.28-1.41-21.69-3.93-21.69-15.54c0-8.17,7.16-16.64,22.19-16.64
		c11.9,0,20.78,6.46,22.5,16.24h-13.82c-0.81-2.42-3.73-4.34-8.68-4.34c-6.15,0-8.68,2.22-8.68,4.14c0,2.72,3.83,3.63,10.29,4.64
		c12.91,2.12,22.19,4.94,22.19,16.24C-729.85-129.12-739.33-121.85-752.65-121.85z"/>
	<path class="st0" d="M-684.25-154.94c-1.82-5.85-6.96-9.28-12.91-9.28c-7.46,0-13.62,6.66-13.62,15.33
		c0,8.57,6.15,14.93,13.62,14.93c4.44,0,8.78-1.71,11.2-5.65h14.02c-3.03,10.59-12.21,17.85-25.02,17.85
		c-14.73,0-26.73-12.21-26.73-27.14c0-15.13,12-27.44,26.73-27.44c15.23,0,28.25,11.7,26.03,32.48h-32.78v-11.1H-684.25z"/>
	<path class="st0" d="M-573.18-123.06h-13.32v-46.71c0-6.66-4.84-12-12.1-12c-7.36,0-11.9,5.35-11.9,12v46.71h-13.42v-46.71
		c0-6.66-4.74-12-12-12c-7.36,0-12.1,5.35-12.1,12v46.71h-13.21v-46.5c0-14.02,10.39-25.22,25.32-25.22
		c7.77,0,14.32,3.53,18.66,9.08c4.24-5.55,11-9.08,18.66-9.08c15.03,0,25.42,11.2,25.42,25.22V-123.06z"/>
	<path class="st0" d="M-547.36-180.66h-13.32v-12.41h13.32V-180.66z M-547.36-123.06h-13.32v-51.95h13.32V-123.06z"/>
	<path class="st0" d="M-511.85-176.33c14.53,0,23.1,9.58,23.1,23.2v30.06h-13.32v-30.36c0-2.93-1.01-9.89-9.79-9.89
		c-5.85,0-10.09,4.04-10.09,9.89v30.36h-13.32v-30.06C-535.25-166.34-525.97-176.33-511.85-176.33z"/>
	<path class="st0" d="M-445.37-162.2h-7.67c-7.67,0-13.62,5.75-13.62,13.42c0,7.77,5.95,14.02,13.32,14.02
		c7.36,0,13.32-6.46,13.32-14.43v-48.92h13.32v48.92c0,15.03-11,27.34-26.63,27.34c-15.74,0-26.73-12.31-26.73-26.93
		c0-14.53,10.89-26.23,25.42-26.23h9.28V-162.2z"/>
	<path class="st0" d="M-394.93-121.85c-13.21,0-23-6.96-24.61-18.16h13.52c1.82,4.44,7.16,6.05,11.1,6.05
		c5.35,0,9.38-1.61,9.38-4.64c0-2.93-1.82-4.14-10.89-5.55c-9.28-1.41-21.69-3.93-21.69-15.54c0-8.17,7.16-16.64,22.19-16.64
		c11.9,0,20.78,6.46,22.5,16.24h-13.82c-0.81-2.42-3.73-4.34-8.67-4.34c-6.15,0-8.68,2.22-8.68,4.14c0,2.72,3.83,3.63,10.29,4.64
		c12.91,2.12,22.19,4.94,22.19,16.24C-372.13-129.12-381.61-121.85-394.93-121.85z"/>
</g>
<g>
	<path class="st1" d="M-1036.57-226.36c-36.63,0-66.43,29.8-66.43,66.43s29.8,66.43,66.43,66.43c36.63,0,66.43-29.8,66.43-66.43
		S-999.94-226.36-1036.57-226.36z M-1031.6-113.49c-0.19-16.63-0.38-33.27-0.57-49.9c0-8.61,6.62-15.97,15.65-15.97
		c8.93,0,15.65,7.35,15.65,15.97v49.9v0.31h0.06c-8.65,6.63-19.18,10.91-30.64,11.91C-1031.51-105.35-1031.55-109.42-1031.6-113.49z
		 M-1041.58-113.49c-0.04,4.07-0.08,8.14-0.12,12.21c-11.49-1-22.05-5.3-30.71-11.96v-0.25v-49.9c0-8.61,6.72-15.97,15.65-15.97
		c9.03,0,15.65,7.35,15.65,15.97C-1041.26-146.76-1041.42-130.13-1041.58-113.49z M-992.05-121.45v-41.94
		c0-13.55-10.61-24.47-24.47-24.47c-8.82,0-16.07,4.41-20.17,11.03c-3.99-6.62-11.24-11.03-20.06-11.03
		c-13.86,0-24.58,10.92-24.58,24.47v41.67c-8.8-10.29-14.13-23.64-14.13-38.21c0-32.47,26.42-58.89,58.89-58.89
		c32.47,0,58.89,26.42,58.89,58.89C-977.68-145.23-983.11-131.78-992.05-121.45z"/>
	<path class="st1" d="M-1054.88-168.04h-3.19c-1.56,0-2.83,1.27-2.83,2.83v13.51c0,1.56,1.27,2.83,2.83,2.83h3.19
		c1.56,0,2.83-1.27,2.83-2.83v-13.51C-1052.05-166.78-1053.32-168.04-1054.88-168.04z"/>
	<path class="st1" d="M-1013.6-168.04h-3.19c-1.56,0-2.83,1.27-2.83,2.83v13.51c0,1.56,1.27,2.83,2.83,2.83h3.19
		c1.56,0,2.83-1.27,2.83-2.83v-13.51C-1010.77-166.78-1012.04-168.04-1013.6-168.04z"/>
</g>
<circle class="st2" cx="-617.5" cy="56.5" r="47.5"/>
<g>
	<rect x="-651.43" y="91.71" class="st3" width="6.77" height="0.23"/>
	<rect x="-590.44" y="91.71" class="st3" width="6.69" height="0.23"/>
	<path class="st3" d="M-602.3,35.32c-6.69,0-12.18,3.34-15.29,8.36c-3.03-5.02-8.52-8.36-15.21-8.36
		c-10.51,0-18.63,8.28-18.63,18.55v37.83h6.77V53.88c0-6.53,5.1-12.1,11.86-12.1c6.85,0,11.86,5.57,11.86,12.1
		c-0.12,12.61-0.24,25.22-0.36,37.83c-0.04,4.1-0.08,8.2-0.12,12.29c2.61,0,5.22,0,7.82,0c-0.05-4.1-0.09-8.2-0.14-12.29
		c-0.15-12.61-0.29-25.22-0.44-37.83c0-6.53,5.02-12.1,11.86-12.1c6.77,0,11.86,5.57,11.86,12.1v37.83h6.69V53.88
		C-583.75,43.61-591.79,35.32-602.3,35.32z"/>
	<path class="st3" d="M-632.24,64.88h-0.71c-1.66,0-3-1.34-3-3v-8.53c0-1.66,1.34-3,3-3h0.71c1.66,0,3,1.34,3,3v8.53
		C-629.24,63.54-630.58,64.88-632.24,64.88z"/>
	<path class="st3" d="M-600.94,64.88h-0.71c-1.66,0-3-1.34-3-3v-8.53c0-1.66,1.34-3,3-3h0.71c1.66,0,3,1.34,3,3v8.53
		C-597.94,63.54-599.28,64.88-600.94,64.88z"/>
</g>
<rect x="-443" y="9" class="st1" width="87" height="87"/>
<circle class="st0" cx="-354" cy="203" r="57"/>
<g>
	<path d="M-348.27,305.18c-3.16-1.57-6.05-2.96-8.89-4.45c-6.56-3.44-12.76-7.4-17.88-12.85c-6.62-7.04-10.03-15.51-11.16-24.98
		c-1.14-9.58-0.34-19.03,2.13-28.34c0.99-3.73,0.72-7.47,0.29-11.25c-0.44-3.89-0.95-7.81-0.88-11.7c0.1-5.8,1.55-11.37,4.11-16.63
		c1.17-2.4,2.12-4.91,3.14-7.39c0.18-0.45,0.23-0.96,0.29-1.45c0.38-3.27-0.8-4.85-4.1-5.47c-0.16-0.03-0.31-0.1-0.48-0.33
		c0.45-0.1,0.9-0.23,1.36-0.3c0.45-0.07,0.9-0.08,1.5-0.12c-1.4-2.77-3.57-4.64-6.04-6.28c4.31-1.07,10.98,3.29,14.84,9.7
		c5.88-3.95,12.53-5.06,19.43-4.94c6.9,0.12,13.54,1.36,19.35,5.59c3.36-6.35,8.63-9.85,15.75-10.89c-2.19,2.15-4.28,4.21-6.37,6.26
		c0.05,0.13,0.09,0.26,0.14,0.4c0.93,0.17,1.87,0.34,3.12,0.57c-0.88,0.43-1.51,0.82-2.2,1.05c-1.95,0.65-2.7,1.93-2.61,4
		c0.15,3.54,1.57,6.57,3.47,9.41c2.27,3.38,3.9,7,4.76,11c1.33,6.24,1.32,12.4-0.7,18.5c-0.12,0.37-0.19,0.75-0.29,1.13
		c-0.64,2.38-0.13,4.46,1.55,6.27c0.77,0.83,1.49,1.7,2.28,2.5c5.17,5.28,8.44,11.71,11.12,18.47c3.22,8.12,4.68,16.62,5.11,25.32
		c0.62,12.62-0.98,25-4.02,37.22c-0.98,3.94-1.99,7.87-3.01,11.8c-0.19,0.75-0.47,1.48-0.76,2.2c-0.96,2.35-2.94,3.26-5.42,2.5
		c-3.03-0.94-5.25-2.99-7.22-5.34c-2.33-2.79-4.47-5.74-6.9-8.44c-1.4-1.56-3.21-2.77-4.99-3.98c2.17,1.9,3.53,4.21,3.88,7.07
		c0.21,1.77-0.03,3.49-0.82,5.4c-1.12-1.13-2.15-2.13-3.13-3.17c-1.21-1.28-2.29-2.7-3.59-3.88c-3.85-3.53-8.53-3.04-11.59,1.21
		c-1.15,1.6-2.09,3.35-3.12,5.03c-0.27,0.44-0.53,0.88-0.82,1.38c-1.5-2.41-1.72-5.73-0.74-10.47c-1.96-0.41-3.57,0.25-4.77,1.72
		c-1.1,1.35-1.98,2.88-2.95,4.33c-1.36-1.12-1.52-3.07-0.62-8.99c-5.43-0.04-6.5,4.01-7.57,8.22c-1.38-1.88-1.89-3.81-1.5-5.91
		c1-5.46,6.68-8.82,11.92-6.97c1.37,0.48,2.37,0.15,3.24-0.73C-349.78,307.26-349.1,306.23-348.27,305.18z M-349.91,201.17
		c-0.2-0.33-0.42-0.73-0.66-1.11c-2.15-3.42-4.78-6.38-8.31-8.43c-4.78-2.77-9.93-1.96-13.61,2.16c-3.29,3.68-4.9,8.12-5.65,12.91
		c-0.68,4.33-0.5,8.59,1.21,12.69c2.34,5.59,6.56,9.34,12.03,11.59c11.07,4.54,22.1,4.17,32.76-1.24
		c7.32-3.72,11.79-9.64,12.15-18.14c0.29-6.85-1.76-12.88-6.62-17.82c-3.89-3.96-8.77-5.06-13.3-2.81
		c-1.73,0.86-3.36,2.13-4.68,3.55C-346.52,196.55-348.12,198.89-349.91,201.17z M-337.16,240.77c-0.44,0-1.02-0.09-1.55,0.03
		c-0.33,0.08-0.79,0.45-0.83,0.75c-0.77,5.55-0.57,11.06,0.88,16.49c1.54,5.8,4.24,11.07,7.54,16.03
		c3.63,5.47,7.41,10.84,11.06,16.29c4.42,6.6,8.14,13.56,10.27,21.26c0.41,1.49,0.58,3.04,0.97,4.54c0.27,1,1.24,1.54,2,1.3
		c0.76-0.24,1.11-1.09,0.84-2.13c-0.36-1.36-0.74-2.72-1.1-4.09c-1.32-5.04-3.57-9.68-6.29-14.06c-3.38-5.46-7.04-10.74-10.63-16.07
		c-3.29-4.9-6.48-9.84-8.89-15.26c-2.5-5.64-4.1-11.5-4.26-17.69C-337.21,245.73-337.16,243.3-337.16,240.77z M-337.19,309.28
		c-2.12-1-4.23-1.99-6.39-3.01c-0.38,1.62-0.28,3.14,0.47,4.57c0.19,0.36,0.59,0.74,0.97,0.86
		C-340.23,312.31-338.03,311.21-337.19,309.28z"/>
	<path class="st4" d="M-337.16,240.77c0,2.53-0.05,4.96,0.01,7.39c0.17,6.19,1.76,12.05,4.26,17.69c2.4,5.41,5.59,10.36,8.89,15.26
		c3.58,5.33,7.24,10.62,10.63,16.07c2.72,4.38,4.97,9.03,6.29,14.06c0.36,1.36,0.75,2.72,1.1,4.09c0.27,1.04-0.07,1.89-0.84,2.13
		c-0.76,0.24-1.74-0.3-2-1.3c-0.4-1.49-0.56-3.05-0.97-4.54c-2.13-7.71-5.85-14.66-10.27-21.26c-3.65-5.45-7.43-10.82-11.06-16.29
		c-3.29-4.96-6-10.23-7.54-16.03c-1.44-5.43-1.65-10.94-0.88-16.49c0.04-0.29,0.5-0.67,0.83-0.75
		C-338.18,240.68-337.6,240.77-337.16,240.77z"/>
	<path class="st4" d="M-337.19,309.28c-0.84,1.93-3.04,3.03-4.96,2.43c-0.38-0.12-0.78-0.5-0.97-0.86
		c-0.75-1.43-0.84-2.95-0.47-4.57C-341.43,307.28-339.31,308.28-337.19,309.28z"/>
	<path d="M-334.7,206.96c3.1,0.13,5.78,1.17,7.61,3.92c0.43,0.64,0.41,1.17,0.04,1.84c-2.25,4.02-8.35,6.22-12.54,4.44
		c-0.58-0.24-1.15-0.57-1.62-0.97c-2.56-2.18-2.45-4.82,0.28-7.1C-339.14,207.61-337.06,206.97-334.7,206.96z"/>
	<path d="M-364.82,206.5c3.5,0.29,6.7,1.85,8.42,5.69c0.62,1.38,0.53,1.63-0.66,2.57c-3.65,2.88-8.83,3.33-12.37,1.04
		c-1.69-1.09-2.67-2.7-3.01-4.65c-0.07-0.42,0.14-0.98,0.4-1.34C-370.41,207.5-368.14,206.43-364.82,206.5z"/>
	<path d="M-349.07,232.29c-0.97-1.74-1.88-3.15-2.57-4.67c-1.15-2.51-1.81-5.12-1.08-7.9c0.51-1.91,1.75-2.96,3.39-2.91
		c1.8,0.06,3.18,1.28,3.6,3.16c0.53,2.33,0.23,4.57-0.7,6.73C-347.19,228.47-348.07,230.19-349.07,232.29z"/>
</g>
<circle class="st0" cx="-509" cy="225" r="57"/>
<g>
	<path d="M-500.14,283.98c0.02,17.02-12.3,27.61-14.12,29.13c-3.32-17.44-8.07-25.61-10.97-29.47c-0.94-1.25-5.31-6.87-10.53-13.34
		c-2.77-3.42-3.5-4.29-4.26-5.23c-6.36-7.83-10.67-16.6-12.09-26.65c-2.13-15.02,1.18-28.09,13.46-37.34
		c-1.81-3.24-3.53-6.34-5.26-9.45c0.27-0.23,0.53-0.46,0.8-0.69c0.78,0.29,1.58,0.55,2.35,0.88c6.39,2.76,12.83,3.81,19.8,1.91
		c7.3-1.99,14.89-2.09,22.19-0.09c7.32,2,14.08,0.99,20.77-2.05c0.58-0.27,1.19-0.48,2.13-0.85c-0.75,6.43-3.67,10.85-9.26,13.43
		c-0.31,0.14-0.65,0.24-0.97,0.37c-16.82,6.74-16.82,6.74-23.51,23.82c-1.21-3.17-2.09-6.41-3.63-9.3c-1.66-3.1-3.62-6.17-6.01-8.72
		c-4.03-4.3-10.26-5.06-15.59-2.49c-4.96,2.39-7.54,7.09-7.19,13.02c0.41,6.91,3.5,12.64,8.32,17.31c4.69,4.55,9.85,8.6,14.81,12.87
		c5.35,4.61,8.12,6.81,9.1,7.9C-500.35,269.45-500.14,283.33-500.14,283.98z"/>
	<path d="M-519.82,219.6c-0.01,3.35-2.89,6.15-6.2,6.03c-3.21-0.11-5.86-2.85-5.84-6.05c0.02-3.37,2.86-6.12,6.2-6.03
		C-522.45,213.65-519.81,216.39-519.82,219.6z"/>
	<path d="M-493.66,225.61c-3.41-0.09-6.05-2.92-5.88-6.31c0.17-3.27,2.86-5.79,6.12-5.73c3.36,0.07,6.07,2.96,5.91,6.31
		C-487.66,223.11-490.44,225.69-493.66,225.61z"/>
</g>
<g>
	<path d="M-232.18,386.67c0.02,20.57-14.86,33.37-17.07,35.21c-4.01-21.08-9.75-30.95-13.26-35.62c-1.13-1.51-6.42-8.31-12.73-16.12
		c-3.34-4.14-4.23-5.18-5.15-6.32c-7.68-9.46-12.89-20.06-14.62-32.21c-2.58-18.15,1.42-33.95,16.26-45.13
		c-2.18-3.92-4.27-7.67-6.36-11.42c0.32-0.28,0.65-0.55,0.97-0.83c0.95,0.35,1.91,0.67,2.84,1.07c7.73,3.33,15.5,4.6,23.93,2.31
		c8.82-2.4,17.99-2.52,26.82-0.11c8.85,2.42,17.02,1.2,25.1-2.48c0.71-0.32,1.44-0.58,2.58-1.03c-0.91,7.77-4.43,13.12-11.2,16.23
		c-0.38,0.17-0.78,0.29-1.17,0.45c-20.32,8.14-20.32,8.14-28.41,28.79c-1.46-3.83-2.52-7.74-4.39-11.23
		c-2-3.75-4.37-7.45-7.26-10.54c-4.87-5.2-12.4-6.12-18.84-3.01c-6,2.89-9.12,8.57-8.69,15.73c0.49,8.35,4.23,15.28,10.05,20.92
		c5.67,5.49,11.91,10.39,17.9,15.56c6.47,5.57,9.81,8.23,11,9.55C-232.43,369.11-232.18,385.88-232.18,386.67z"/>
	<path d="M-255.97,308.86c-0.01,4.05-3.49,7.43-7.5,7.29c-3.88-0.13-7.08-3.44-7.06-7.31c0.02-4.07,3.45-7.4,7.5-7.28
		C-259.15,301.67-255.96,304.97-255.97,308.86z"/>
	<path d="M-224.35,316.12c-4.12-0.1-7.31-3.53-7.1-7.63c0.2-3.95,3.46-7,7.4-6.92c4.06,0.08,7.33,3.58,7.14,7.63
		C-217.11,313.09-220.46,316.22-224.35,316.12z"/>
</g>
<g>
	<path d="M-243.73,356.44c1.19-1.32,4.54-3.98,11-9.55c5.99-5.16,12.23-10.06,17.9-15.56c5.82-5.64,9.56-12.57,10.05-20.92
		c0.42-7.16-2.7-12.84-8.69-15.73c-6.45-3.11-13.97-2.19-18.84,3.01c-2.89,3.09-5.26,6.79-7.26,10.54
		c-1.86,3.49-2.93,7.4-4.39,11.23c-8.09-20.65-8.09-20.65-28.41-28.79c-0.39-0.15-0.79-0.27-1.17-0.45
		c-6.76-3.12-10.29-8.46-11.2-16.23c1.13,0.45,1.87,0.71,2.58,1.03c8.08,3.68,16.25,4.9,25.1,2.48c8.83-2.42,18-2.29,26.82,0.11
		c8.42,2.29,16.2,1.02,23.93-2.31c0.93-0.4,1.89-0.71,2.84-1.07c0.32,0.28,0.65,0.55,0.97,0.83c-2.09,3.75-4.18,7.5-6.36,11.42
		c14.84,11.18,18.84,26.97,16.26,45.13c-1.72,12.14-6.94,22.75-14.62,32.21c-0.93,1.14-1.81,2.18-5.15,6.32
		c-6.31,7.81-11.59,14.61-12.73,16.12c-3.51,4.67-9.25,14.54-13.26,35.62c-2.21-1.84-17.09-14.64-17.07-35.21
		C-255.42,385.88-255.18,369.11-243.73,356.44z"/>
	<path d="M-231.64,308.86c0.01,4.05,3.49,7.43,7.5,7.29c3.88-0.13,7.08-3.44,7.06-7.31c-0.02-4.07-3.45-7.4-7.5-7.28
		C-228.46,301.67-231.65,304.97-231.64,308.86z"/>
	<path d="M-263.26,316.12c4.12-0.1,7.31-3.53,7.1-7.63c-0.2-3.95-3.46-7-7.4-6.92c-4.06,0.08-7.33,3.58-7.14,7.63
		C-270.5,313.09-267.14,316.22-263.26,316.12z"/>
</g>
<g>
	<path d="M-375.08,445.67c-4.03-0.12-7.46,3.21-7.48,7.27c-0.02,3.86,3.17,7.16,7.04,7.29c4,0.14,7.47-3.24,7.48-7.27
		C-368.03,449.08-371.21,445.78-375.08,445.67z"/>
	<path d="M-336.5,460.2c3.88,0.1,7.23-3.02,7.41-6.9c0.19-4.04-3.07-7.53-7.12-7.61c-3.93-0.08-7.18,2.96-7.38,6.9
		C-343.79,456.67-340.61,460.09-336.5,460.2z"/>
	<path d="M-327,418c-18.21-11.29-44.41-12.19-62,1c-9.82,7.37-14.2,17.06-16.59,22.34c-7.36,16.28-5.91,30.9-5.35,34.88
		c1.72,12.12,6.91,23.59,15.43,34.08l0.92,1.13c0.78,0.95,1.91,2.32,4.21,5.17c6.23,7.71,11.47,14.46,12.61,15.97
		c5.3,7.06,9.62,18.78,12.5,33.88l1.27,6.66l5.21-4.33c0.72-0.6,1.72-1.48,2.88-2.62c1.16,1.14,2.16,2.02,2.88,2.62l5.21,4.33
		l1.27-6.66c2.87-15.1,7.19-26.82,12.5-33.88c1.14-1.51,6.38-8.25,12.61-15.97c2.3-2.85,3.43-4.22,4.21-5.17l0.92-1.13
		c8.52-10.49,13.71-21.96,15.44-34.08c0.72-5.08,2.31-19.33-5.35-34.88C-313.48,426.6-324.84,419.34-327,418z M-348.3,530.58
		c0.01,9.74-3.73,17.62-7.6,23.18c-3.87-5.56-7.61-13.44-7.6-23.18c0-0.14,0.11-12.66,7.6-23.6
		C-348.41,517.92-348.3,530.44-348.3,530.58L-348.3,530.58z M-353.25,492.82c-1.04,0.88-1.91,1.62-2.65,2.26
		c-0.74-0.64-1.61-1.37-2.65-2.26c-1.56-1.32-3.47-2.94-5.8-4.94c-1.84-1.59-3.71-3.15-5.58-4.72c-4.08-3.41-8.29-6.94-12.11-10.65
		c-5.45-5.28-8.42-11.42-8.82-18.24c-0.23-3.89,0.7-9.1,6.42-11.86c1.59-0.77,3.23-1.21,4.84-1.35c5.59,2.32,8.88,3.98,11.11,6.24
		c2.97,3.01,4.89,7.92,8.72,17.69l3.77,9.63l0.1-0.27l0.1,0.27l3.77-9.63c3.83-9.78,5.75-14.69,8.72-17.69
		c2.23-2.26,5.52-3.91,11.11-6.24c1.61,0.13,3.24,0.58,4.83,1.35c5.72,2.76,6.65,7.97,6.42,11.86c-0.4,6.82-3.37,12.95-8.82,18.24
		c-3.82,3.7-8.03,7.23-12.11,10.65c-1.87,1.56-3.73,3.13-5.57,4.71C-349.78,489.88-351.69,491.5-353.25,492.82z M-368.39,425.64
		c4.02-1.09,8.1-1.65,12.16-1.69c0.11,0,0.22-0.01,0.33-0.01c0.11,0,0.22,0.01,0.33,0.01c4.05,0.04,8.14,0.6,12.16,1.69
		c3.47,0.94,6.97,1.36,10.52,1.26c3.4-0.06,6.81-0.61,10.26-1.61l-1.91,3.42c-0.98,0.77-2.09,1.44-3.36,2.03
		c-0.12,0.06-0.25,0.1-0.38,0.14c-0.2,0.07-0.4,0.14-0.6,0.22c-1.76,0.71-3.38,1.36-4.88,1.98c-5.12,0.14-10.01,2.2-13.58,6
		c-2.79,2.98-5.36,6.7-7.85,11.36c-0.25,0.47-0.47,0.95-0.7,1.43c-0.23-0.48-0.45-0.96-0.7-1.43c-2.49-4.67-5.06-8.38-7.85-11.36
		c-3.57-3.81-8.45-5.86-13.58-6c-1.5-0.62-3.12-1.27-4.89-1.98c-0.2-0.08-0.4-0.15-0.6-0.22c-0.13-0.04-0.25-0.08-0.37-0.14
		c-1.27-0.58-2.38-1.26-3.36-2.03l-1.91-3.42c3.45,1,6.86,1.54,10.26,1.61C-375.36,427-371.86,426.58-368.39,425.64z
		 M-384.16,511.58c-2.32-2.88-3.46-4.26-4.25-5.22l-0.89-1.09c-7.7-9.48-12.19-19.35-13.73-30.17c-2.42-17.05,1.55-29.9,12.12-39.18
		c0.27,0.18,0.54,0.37,0.82,0.54c-6.04,3.86-9.2,10.39-8.73,18.29c0.53,8.87,4.3,16.78,11.23,23.5c4.03,3.9,8.35,7.53,12.54,11.03
		c1.84,1.54,3.68,3.08,5.49,4.64c2.34,2.02,4.28,3.66,5.85,4.99c0.88,0.74,1.66,1.41,2.34,1.99c-7.63,10.2-9.51,21.74-9.97,26.92
		c-0.01-0.02-0.02-0.03-0.04-0.05C-372.53,526.22-377.86,519.37-384.16,511.58z M-308.77,475.09c-1.54,10.82-6.03,20.69-13.73,30.17
		l-0.89,1.09c-0.79,0.96-1.93,2.34-4.25,5.22c-6.29,7.79-11.62,14.64-12.78,16.19c-0.01,0.02-0.02,0.03-0.04,0.05
		c-0.46-5.18-2.34-16.72-9.97-26.92c0.68-0.58,1.46-1.25,2.34-1.99c1.57-1.33,3.51-2.97,5.85-4.99c1.81-1.56,3.65-3.1,5.49-4.64
		c4.18-3.51,8.51-7.13,12.54-11.03c6.93-6.72,10.71-14.62,11.23-23.5c0.47-7.9-2.69-14.43-8.73-18.29c0.28-0.17,0.55-0.36,0.82-0.54
		C-310.33,445.2-306.35,458.04-308.77,475.09z"/>
</g>
<g>
	<path class="st0" d="M-435.4,380.91c0.43-1.29,0.83-3.14,0.97-5.45c0.2-3.44-0.64-6.45-2.4-8.79c-1.55-2.06-3.46-3.12-4.43-3.57
		c-4.52-2.11-8.26,0.38-15.74,1.9c-2.34,0.48-5.02,1.01-8,1.22c-2.98-0.21-5.66-0.74-8-1.22c-7.48-1.52-11.22-4.01-15.74-1.9
		c-0.98,0.46-2.88,1.52-4.43,3.57c-1.76,2.34-2.6,5.34-2.4,8.79c0.14,2.31,0.54,4.17,0.97,5.45c6.05,18.16,20.99,23.21,20.99,23.21
		c1.81,0.61,4.74,1.4,8.61,1.52c3.87-0.12,6.8-0.91,8.61-1.52C-456.39,404.12-441.44,399.08-435.4,380.91z"/>
	<path class="st0" d="M-465,323c-30.33,0.05-54.9,24.65-54.9,55c0,23.74,15.04,43.97,36.12,51.67c-1.65-2.09-3.66-4.62-5.82-7.29
		c-2.63-3.25-3.32-4.07-4.05-4.97c-6.04-7.43-10.13-15.76-11.49-25.31c-0.48-3.37-1.82-14.07,3.71-25.31
		c0.63-1.28,11.88-23.17,35.42-23.8c0.34-0.01,0.67,0,1,0c0.33,0,0.66,0,1,0c23.54,0.63,34.79,22.53,35.42,23.8
		c5.53,11.24,4.19,21.94,3.71,25.31c-1.35,9.54-5.45,17.87-11.49,25.31c-0.73,0.9-1.42,1.72-4.05,4.97
		c-2.16,2.67-4.17,5.2-5.82,7.29c21.07-7.7,36.12-27.93,36.12-51.67C-410.1,347.66-434.67,323.06-465,323z"/>
</g>
<text transform="matrix(1.2802 0 0 1 -713.0439 457.207)" class="st4" style="font-family:'DebraRoundedLight'; font-size:92.1819px;">M</text>
<path class="st4" d="M-643.32,457c-8.28,6.16-16.56,12.31-24.84,18.47c-8.28-6.16-16.56-12.31-24.84-18.47
	c-2.11,0.07-4.22,0.14-6.32,0.21v59.46c2.16,0,4.32,0,6.48,0v-53.35c8.23,6.43,16.45,12.85,24.68,19.28
	c8.23-6.43,16.45-12.85,24.68-19.28v53.35c2.16,0,4.32,0,6.48,0v-59.46C-639.11,457.14-641.22,457.07-643.32,457z"/>
<text transform="matrix(1.2802 0 0 1 -620.0439 510.207)" class="st4" style="font-family:'DebraRoundedLight'; font-size:92.1819px;">M</text>
<path class="st4" d="M-559.32,448c-8.28,6.16-16.56,12.31-24.84,18.47c-8.28-6.16-16.56-12.31-24.84-18.47
	c-2.11,0.07-4.22,0.14-6.32,0.21v59.46c2.16,0,4.32,0,6.48,0v-53.35c8.23,6.43,16.45,12.85,24.68,19.28
	c8.23-6.43,16.45-12.85,24.68-19.28v53.35c2.16,0,4.32,0,6.48,0v-59.46C-555.11,448.14-557.22,448.07-559.32,448z"/>
<g>
	<path class="st0" d="M109.93,105.59H11.4c-0.04,0-0.07-0.03-0.07-0.07V6.98c0-0.04,0.03-0.07,0.07-0.07h98.53
		c0.04,0,0.07,0.03,0.07,0.07v98.53C110,105.55,109.97,105.59,109.93,105.59z"/>
	<g>
		<path class="st4" d="M85.48,26.44c-8.27,6.15-16.55,12.3-24.82,18.46c-8.27-6.15-16.55-12.3-24.82-18.46
			c-2.11,0.07-4.21,0.14-6.32,0.21v59.42c2.16,0,4.32,0,6.47,0V32.76c16.44,12.9,32.89,25.8,49.33,38.71c0,4.87,0,9.74,0,14.61
			c2.16,0,4.32,0,6.47,0V26.66C89.7,26.58,87.59,26.51,85.48,26.44z M65.11,48.55c6.74-5.26,13.48-10.53,20.22-15.79v31.71
			L65.11,48.55z"/>
		<path class="st4" d="M94,88.28H83.13V72.54L38.19,37.28v51H27.32V24.53l9.21-0.31l24.13,17.94l24.13-17.94L94,24.53V88.28z
			 M87.53,83.88h2.08v-55.1l-2.08-0.07V69L61.55,48.55l25.42-19.86l-0.79-0.03L60.66,47.64L35.15,28.67l-0.78,0.03L87.53,70.4V83.88
			z M31.72,83.88h2.08V28.71l-2.08,0.07V83.88z M68.67,48.56l14.46,11.38V37.27L68.67,48.56z"/>
	</g>
</g>
</svg>
