<svg xmlns="http://www.w3.org/2000/svg" xmlns:xlink="http://www.w3.org/1999/xlink" width="474" height="589" viewBox="0 0 474 589"><defs><clipPath id="b"><rect width="474" height="589"/></clipPath></defs><g id="a" clip-path="url(#b)"><g transform="translate(28.459 46.119)"><g transform="translate(101.396 1)"><g transform="translate(6.147)"><path d="M149.595,68.1c-.946-8.31.278-25.68.36-26.736.518-6.671-2.607-33.016-8.516-30.589C131.528,2.929,118.326,1.2,105.982.368,80.341-1.352,53.063,2.6,33.264,19.853c-9.792,8.962-19.324,22-18.558,35.569C5.81,68.288-6.732,85.935,4.353,100.975c3.768,4.805,9.756,6.595,14.489,10.234,9.52,7.68,15.493,18.7,25.1,26.335,25.462,22.882,68.7,27.663,93.713,1.636C157,120.33,153.876,92.13,150.473,68.1,148.186,51.944,151.44,84.312,149.595,68.1Z" transform="translate(7.47 36.905)" fill="none"/><path d="M109.964,194.749a58.88,58.88,0,0,1-8.36-.613,46.318,46.318,0,0,1-9.441-2.285,17.9,17.9,0,0,1-4.425-2.337,19.869,19.869,0,0,1-3.6-3.458,2.765,2.765,0,0,1-.3-2.775,1.7,1.7,0,0,1,1.6-1.038,2.274,2.274,0,0,1,.274.017,51.909,51.909,0,0,1,9.236,1.812l.441.139a45.738,45.738,0,0,0,9.463,2.03c1.623.157,3.269.237,4.892.237a48.51,48.51,0,0,0,14.662-2.236,42.564,42.564,0,0,0,7.4-3.154,45.493,45.493,0,0,0,6.7-4.451,47.566,47.566,0,0,0,10.654-11.994,46.555,46.555,0,0,0,6.249-17.117,105.138,105.138,0,0,0,1.135-18.33c-.1-13.133-.527-26.873-1.27-40.838l-.123-2.267c-.314-5.75-.72-13.335-1.076-21.005-.118-2.569-.287-4.668-.532-6.6a17.386,17.386,0,0,1-6.286-6.058,61.951,61.951,0,0,1-8.98,2.825,53.759,53.759,0,0,1-12.823,1.575,50.6,50.6,0,0,1-7.548-.564c-1.819.751-3.7,1.422-5.592,1.993-.525.233-1.042.458-1.536.669a93.309,93.309,0,0,1-14.027,4.824l-1.185.3a48.477,48.477,0,0,1-8,1.435,11.656,11.656,0,0,1-1.446.444,23.5,23.5,0,0,1-5.541.659c-.662,0-1.332-.028-1.992-.083a3.721,3.721,0,0,1-2.991-1.93,3.056,3.056,0,0,1-.354-1.477,3.281,3.281,0,0,1,.467-1.606c.977-1.676,1.983-3.383,2.992-5.074a94.255,94.255,0,0,1-10.763,3.7c-3.248.915-6.792,1.777-11.154,2.715-.99.211-2,.414-2.974.609H53.8c-.991.2-2.015.4-3.019.619-.318.068-.673.128-1.048.191A8.512,8.512,0,0,0,46,65.456c-1,.8-1.433,2.4-1.818,3.813-.109.4-.212.779-.322,1.112-.683,2.055-1.269,3.96-1.792,5.826a121.006,121.006,0,0,0-2.684,11.884,114.041,114.041,0,0,0-1.419,12.126c-.107,1.674-.151,3.38-.193,5.03-.061,2.351-.124,4.782-.368,7.158a2.822,2.822,0,0,1-.847,1.767,2.416,2.416,0,0,1-1.658.671,2.592,2.592,0,0,1-1.72-.69c-.192-.169-.4-.351-.6-.533l-.3-.271a30.31,30.31,0,0,1-4.028-4.288c-.207-.284-.409-.587-.6-.9a.144.144,0,0,1-.088-.03l-.323-.243c-3.388-2.523-6.3-3.8-8.667-3.8a5.233,5.233,0,0,0-4.286,2.1,13.645,13.645,0,0,0-2.138,4.9l-.823,3.077A53.451,53.451,0,0,0,10,120.251a23.3,23.3,0,0,0-.018,7.144,13.042,13.042,0,0,0,2.856,6.458,8.077,8.077,0,0,0,4.955,2.807,6.213,6.213,0,0,0,.855.056,15.115,15.115,0,0,0,1.966-.173l.012,0,.4-.052a6.587,6.587,0,0,1,.822-.046c.29,0,.584.014.868.027h0c.286.013.582.027.875.027.247,0,.468-.01.675-.03.067-.007.134-.01.2-.01a1.741,1.741,0,0,1,1.515.872,2.514,2.514,0,0,1,.135,2.359,7.982,7.982,0,0,1-1.234,1.823,14.246,14.246,0,0,1,1.085,1.045,5.416,5.416,0,0,1,2.64,1.973,4.476,4.476,0,0,1,.9,2.443c.056.2.108.406.162.659l.943,1.529c.231.374.434.7.621.992a47.759,47.759,0,0,0,8.369,9.991c1.179,1.073,2.415,2.122,3.61,3.136a80.776,80.776,0,0,1,6.023,5.471l.353.369a23.067,23.067,0,0,1,3.774,4.886,7.96,7.96,0,0,1,.863,5.887,2.06,2.06,0,0,1-1.918,1.437,1.493,1.493,0,0,1-.9-.29,22.025,22.025,0,0,1-4.641-5.3,33.447,33.447,0,0,0-2.932-3.779c-1.425-1.514-2.953-2.974-4.431-4.386l0,0c-1.437-1.373-2.923-2.794-4.314-4.263a34.288,34.288,0,0,1-6.356-9.5,5.117,5.117,0,0,1-3.522,1.44,4.823,4.823,0,0,1-2.658-.817,5.44,5.44,0,0,1-1.855-2.094,16.633,16.633,0,0,1-1.876.712,3.785,3.785,0,0,1-1.106.173,3.265,3.265,0,0,1-2.767-1.577,4.268,4.268,0,0,1-.649-1.935,4.149,4.149,0,0,1,.353-2.082,13.3,13.3,0,0,1,2.552-3.814A16.177,16.177,0,0,1,8.5,139.582a17.869,17.869,0,0,1-4.915-9.463,26.37,26.37,0,0,1-.482-5.4,33.963,33.963,0,0,1,.5-5.4,53.452,53.452,0,0,1,3.185-11.032c.275-.673.541-1.272.812-1.832a.571.571,0,0,1-.435-.211c-.331-.453-.692-.883-1.041-1.3a12.717,12.717,0,0,1-1.832-2.6c-.146-.3-.3-.605-.445-.9a33.411,33.411,0,0,1-1.479-3.26A40.509,40.509,0,0,1,.41,88.939,69.678,69.678,0,0,1,.929,70.157,75.043,75.043,0,0,1,5.07,54.637,76.286,76.286,0,0,1,12.354,40.4a5.1,5.1,0,0,1-.905-.606l-.14-.122-.228-.206a3.758,3.758,0,0,1-1.193-2.733,4.322,4.322,0,0,1,1.193-3.12l.48-.481a12.734,12.734,0,0,1,2.114-1.74c.142-.1.291-.187.443-.274a4.2,4.2,0,0,1-.334-3.286,4.361,4.361,0,0,1,2.2-2.692,7.726,7.726,0,0,1,3.648-.8,13.049,13.049,0,0,1,5.438,1.24,70.307,70.307,0,0,1,14.258-9.883A136.416,136.416,0,0,1,58.78,7.477,167.96,167.96,0,0,1,79.2,2.032,92.743,92.743,0,0,1,97.591,0c.843,0,1.688.015,2.511.046l.54.021a61.811,61.811,0,0,1,8.522.8,21.013,21.013,0,0,1,8.017,2.941,1,1,0,0,1,.7-.3.858.858,0,0,1,.373.085A131.33,131.33,0,0,0,134.2,9.543l1.273.414a77.906,77.906,0,0,0,17.665,3.591,3.664,3.664,0,0,1,1.754.632,3.55,3.55,0,0,1,1.2,1.361,2.763,2.763,0,0,1-.194,2.818c-.352.539-.689,1.076-1,1.575l.5-.052h0c.378-.04.77-.081,1.154-.12.079-.008.16-.012.24-.012a3.237,3.237,0,0,1,2.294,1.1,3.4,3.4,0,0,1,.988,2.439,32.77,32.77,0,0,1-.365,3.3h.127a4.9,4.9,0,0,1,1.917.371,4.661,4.661,0,0,1,2.794,3.627,17.248,17.248,0,0,1,.083,4.848A20.1,20.1,0,0,1,159.765,47.3a18.869,18.869,0,0,1,2.811,3.757,20.457,20.457,0,0,1,1.861,4.472,21.116,21.116,0,0,1,.861,7.329l-.059.735c-.24,2.8-.721,5.655-2.6,7.533a4.084,4.084,0,0,1-2.94,1.255c-.136,0-.275-.007-.412-.02.7,6.185,1.161,12.518,1.568,18.474l.2,2.942c.547,8.267.913,15.064,1.153,21.388.294,7.751.4,14.753.309,21.406a91.54,91.54,0,0,1-.638,9.887,68.223,68.223,0,0,1-1.849,9.579,54.757,54.757,0,0,1-3.348,9.11,48.984,48.984,0,0,1-5.135,8.478,55.186,55.186,0,0,1-6.157,6.869,54.241,54.241,0,0,1-7.2,5.72,52.327,52.327,0,0,1-8.071,4.391,50.113,50.113,0,0,1-8.769,2.883A51.134,51.134,0,0,1,109.964,194.749ZM27.68,127.76h-.072a4.729,4.729,0,0,1-3.032-1.22,15.253,15.253,0,0,1-2.2-2.567c-.222-.3-.451-.612-.682-.91a3.017,3.017,0,0,1-.734.9l-.2.158a3.693,3.693,0,0,1-2.208.895l-.12,0a4.326,4.326,0,0,1-1.81-.488,3.28,3.28,0,0,1-1.492-1.744,3.756,3.756,0,0,1,1.343-4.464l-.265-.181a5.31,5.31,0,0,1-1.489-1.426l-.091-.146h.035a1.424,1.424,0,0,1,.818-2.1,4.269,4.269,0,0,1,1.325-.2A14.5,14.5,0,0,1,22.4,116l.506.234a30.052,30.052,0,0,1,7.015,4.864,3.9,3.9,0,0,1,1,3.792l-.016.078c-.021.106-.043.216-.068.326a3,3,0,0,1-1.174,1.749A3.384,3.384,0,0,1,27.68,127.76Z" fill="#1d293f"/></g><g transform="translate(78.634 77.351)"><path d="M46.254,82.065a16.739,16.739,0,0,1-9.275-2.743,17.673,17.673,0,0,1-3.837-3.314A13.881,13.881,0,0,1,30.8,72.272a10.6,10.6,0,0,1-.834-4.243,1.31,1.31,0,0,1,.311-.835,1.458,1.458,0,0,1,.776-.466,1.5,1.5,0,0,1,.342-.04,1.376,1.376,0,0,1,.565.119,1.207,1.207,0,0,1,.6.588c.278.366.645.845,1.014,1.308a25.5,25.5,0,0,0,4.21,4.308,13.035,13.035,0,0,0,5.238,2.464,11.215,11.215,0,0,0,2.407.262A11.782,11.782,0,0,0,49.493,75a13.825,13.825,0,0,0,5.689-4,3.055,3.055,0,0,1,2.325-1.149h.02A3.574,3.574,0,0,1,60,70.95a3.857,3.857,0,0,1,1.155,2.517A3.368,3.368,0,0,1,60.2,75.94a19.163,19.163,0,0,1-4.032,3.286,19.516,19.516,0,0,1-4.749,2.1A18.555,18.555,0,0,1,46.254,82.065Zm5.232-24.436h0a15.336,15.336,0,0,1-5.469-1.1,27.619,27.619,0,0,1-6.431-3.65,2.471,2.471,0,0,1-.9-1.427,2.958,2.958,0,0,1,.127-1.6A3.646,3.646,0,0,1,39.9,48.281a2.635,2.635,0,0,1,1.687-.658,2.394,2.394,0,0,1,1.305.4l.426.328.015.011a34.814,34.814,0,0,0,4.026,2.8A9.917,9.917,0,0,0,52.182,52.7a5.21,5.21,0,0,0,2.039-.4,5.7,5.7,0,0,0,1.9-1.345,5.824,5.824,0,0,0,1.1-4.688,8.856,8.856,0,0,0-2.35-4.158,17.135,17.135,0,0,0-3.558-2.872,1.1,1.1,0,0,1-.3-1.268,1.655,1.655,0,0,1,.548-.789,1.682,1.682,0,0,1,1.05-.347,2.236,2.236,0,0,1,.378.033,11.93,11.93,0,0,1,4.2,1.516,9.517,9.517,0,0,1,2.822,2.6,10.337,10.337,0,0,1,1.8,6.906,11.379,11.379,0,0,1-.923,3.624,10.575,10.575,0,0,1-2.08,3.114A9.939,9.939,0,0,1,51.486,57.629ZM9.435,40.744a2.1,2.1,0,0,1-.609-.09,1.238,1.238,0,0,1-.834-.719c-.586-1.556-.973-4.156.512-7.7a18.035,18.035,0,0,1,2.713-4.447,11.137,11.137,0,0,1,2.912-2.613,9.762,9.762,0,0,1,4.63-1.194,9.275,9.275,0,0,1,4.464,1.152,11.614,11.614,0,0,1,3.084,2.535A31.964,31.964,0,0,1,28.7,30.853c.315.459.64.934.972,1.394a2.806,2.806,0,0,1,.472,2.609,3.374,3.374,0,0,1-1.915,1.977,3.666,3.666,0,0,1-1.411.289,3.22,3.22,0,0,1-1.258-.249,3.384,3.384,0,0,1-1.815-1.917,13.081,13.081,0,0,0-1.409-2.56,7.692,7.692,0,0,0-2.051-2.031,3.7,3.7,0,0,0-3.71-.284,12.125,12.125,0,0,0-4.317,4.306,8.441,8.441,0,0,0-1.416,5.029,1.141,1.141,0,0,1-.369.959,1.437,1.437,0,0,1-.8.355A1.884,1.884,0,0,1,9.435,40.744Zm63.681-6.2a2.744,2.744,0,0,1-.792-.128,3,3,0,0,1-1.237-.739A2.463,2.463,0,0,1,70.4,32.43a5.1,5.1,0,0,0-1.789-2.978,3.57,3.57,0,0,0-2.855-.751,5.483,5.483,0,0,0-3.072,1.842,6.747,6.747,0,0,0-.645.94l-.019.032a6.864,6.864,0,0,1-1.275,1.675,1.244,1.244,0,0,1-.79.3,1.179,1.179,0,0,1-.352-.055,5.009,5.009,0,0,1-1.134-1.586,3.119,3.119,0,0,1-.226-1.368,5.419,5.419,0,0,1,1-2.745,10.67,10.67,0,0,1,2.753-2.691,9.172,9.172,0,0,1,3.045-1.435,8.226,8.226,0,0,1,1.725-.184,8.8,8.8,0,0,1,5.064,1.648,9.617,9.617,0,0,1,3.932,6.019,3.2,3.2,0,0,1-.161,1.777,2.493,2.493,0,0,1-1.163,1.293A2.764,2.764,0,0,1,73.116,34.541ZM1.509,22.82a.732.732,0,0,1-.095-.006.892.892,0,0,1-.464-.225A3.374,3.374,0,0,1,0,19.811a12.02,12.02,0,0,1,1.222-4.67A29.845,29.845,0,0,1,3.576,11.2,20.741,20.741,0,0,1,6.592,7.761a26.1,26.1,0,0,1,8.443-5.143,18.153,18.153,0,0,1,6.018-1.326c.125,0,.25,0,.372.007a7.23,7.23,0,0,1,2.239.426,5.89,5.89,0,0,1,1.994,1.24,3.7,3.7,0,0,1,1.106,2.7,3.859,3.859,0,0,1-1.111,2.765,5.712,5.712,0,0,1-2.361,1.38,13.727,13.727,0,0,1-2.577.46,23.434,23.434,0,0,0-2.511.371,23.594,23.594,0,0,0-6.065,2.215,22.444,22.444,0,0,0-5.684,4.029c-.371.4-.724.818-1.065,1.225l-.009.011c-.317.378-.617.735-.936,1.084-.355.388-.682.779-1.071,1.249a5.311,5.311,0,0,0-.3.535c-.077.162-.152.31-.229.455-.142.267-.278.5-.405.7-.252.425-.383.526-.486.572A1.09,1.09,0,0,1,1.509,22.82Zm75.2-.964a.86.86,0,0,1-.142-.012.848.848,0,0,1-.433-.21.814.814,0,0,1-.243-.42A15.767,15.767,0,0,0,73.6,15.647a12.016,12.016,0,0,0-4.58-3.905,29.4,29.4,0,0,0-6.4-2.153c-.616-.146-1.28-.243-1.921-.337l-.03,0A16.226,16.226,0,0,1,57.616,8.6a5.387,5.387,0,0,1-2.5-1.688,4.67,4.67,0,0,1-.864-1.686,4.3,4.3,0,0,1-.1-1.816A3.728,3.728,0,0,1,56.171.646,6.092,6.092,0,0,1,59,0c2.363,0,4.923,1.1,6.793,1.9l.149.064.007,0,.5.211a22.3,22.3,0,0,1,7.774,5.188,16.8,16.8,0,0,1,4,7.384,8.863,8.863,0,0,1-.807,6.72.8.8,0,0,1-.365.32A.84.84,0,0,1,76.705,21.856Z" transform="translate(0 0)" fill="#1d293f"/></g><g transform="translate(39.095 119.941)"><path d="M89.168,81.718h0c-3.6,0-7.192-.349-10.362-.657a117.575,117.575,0,0,1-26.218-5.735c-3.975-1.34-8.075-2.936-12.534-4.878-.609-.264-1.233-.532-1.837-.792a85.509,85.509,0,0,1-10.285-4.966,39.663,39.663,0,0,1-7.466-6.462l0,0c-.4-.41-.817-.834-1.221-1.24a136.409,136.409,0,0,1-11.907-13.3A43.032,43.032,0,0,1,3.008,37.1,24.135,24.135,0,0,1,.574,29.647C-.749,21.021.473,12.014,1.655,3.3c.093-.686.189-1.395.283-2.091A.38.38,0,0,1,2.3.906a.223.223,0,0,1,.224.162C2.518.925,2.51.775,2.5.581a.535.535,0,0,1,.141-.4A.608.608,0,0,1,3.081,0a.6.6,0,0,1,.59.422A52,52,0,0,0,15.166,20.877a63.253,63.253,0,0,0,5.359,5.14c1.766,1.514,3.674,3.008,5.833,4.567,4.011,2.9,8.293,5.575,12.435,8.166l0,0c.86.538,1.75,1.095,2.622,1.644a2.227,2.227,0,0,1,1.087-.58,24.508,24.508,0,0,1,3.932-8.545,37.958,37.958,0,0,1,6.211-6.885A51.911,51.911,0,0,1,85.827,12.112a43.756,43.756,0,0,1,8.222.763,38.133,38.133,0,0,1,7.816,2.373,33.893,33.893,0,0,1,9.155,5.822,34.34,34.34,0,0,1,6.884,8.4,35.975,35.975,0,0,1,2.8,6.03c.339.952,2.984,11.612,1.317,17.72a45.6,45.6,0,0,1-3.307,8.53,52.528,52.528,0,0,1-4.853,7.792A29.871,29.871,0,0,1,101,79.821a26.355,26.355,0,0,1-5.765,1.491A41.27,41.27,0,0,1,89.168,81.718ZM84.055,23.765a49.384,49.384,0,0,0-12.08,1.361,31.449,31.449,0,0,0-12.146,6.063,29.084,29.084,0,0,0-4.7,4.824,26.882,26.882,0,0,0-3.409,5.81,15.5,15.5,0,0,0,.139,5.484,40.808,40.808,0,0,0,10.565,5.352,36.848,36.848,0,0,0,11.657,1.926,34.705,34.705,0,0,0,4-.232c.62-.769,1.25-1.648,1.916-2.578a38.972,38.972,0,0,1,4.017-5.007,9.176,9.176,0,0,1,5.07-2.873,6.987,6.987,0,0,1,1-.073,7.581,7.581,0,0,1,4.163,1.349,26.935,26.935,0,0,1,3.582,2.974,23.622,23.622,0,0,0,4.116,3.3c.224.128.479.26.778.4a16.149,16.149,0,0,0,7.913-2.47,7.923,7.923,0,0,0,2.6-2.849,11.215,11.215,0,0,0,1.127-3.569c-.12-.485-.252-.981-.393-1.473a38.071,38.071,0,0,0-1.817-5.041,27.954,27.954,0,0,0-2.623-4.661,17.779,17.779,0,0,0-3.015-3.35,13.668,13.668,0,0,0-3.834-2.333A36.015,36.015,0,0,0,92.9,24.264l-.78-.074C89.185,23.9,86.548,23.765,84.055,23.765Z" fill="#1d293f"/></g><g transform="translate(0 81.279)"><path d="M94.182,52.8h0a26.007,26.007,0,0,1-5.319-.556,27.118,27.118,0,0,1-9.8-4.2,26.42,26.42,0,0,1-4.1-3.487,24.766,24.766,0,0,1-5.232-8.193,25.273,25.273,0,0,1-1.647-10.332,3.639,3.639,0,0,1-2.453-1.336,7.137,7.137,0,0,1-.991-2.284c-.647-2.114-1.381-4.511-6.289-5.326a9.539,9.539,0,0,1-4.084-2.717,112.175,112.175,0,0,0-11.915-.67,86.376,86.376,0,0,0-13.562,1.036,74.412,74.412,0,0,0-13.4,3.428c-.78.326-1.606.628-2.406.919A28.474,28.474,0,0,0,8.909,20.8a5.916,5.916,0,0,0-2.674,2.633c-.619,1.378-.511,3.083.331,5.214A2.624,2.624,0,0,1,4,31.135,2.2,2.2,0,0,1,2.4,30.443s0,0,0,0l0,0A18.118,18.118,0,0,1,.083,24.109a8.236,8.236,0,0,1,.681-4.727c1.276-2.622,4.144-4.633,8.769-6.145A88.044,88.044,0,0,1,22.6,10.488l.821-.13A88.127,88.127,0,0,1,41.954,8.419c.646,0,1.3.007,1.952.02.8.034,1.635.047,2.524.06h0a29.481,29.481,0,0,1,7.654.739l.033.009C54.461,8.213,55.6,7.239,57.5,6.353a33.936,33.936,0,0,1,7.218-2.2,86.964,86.964,0,0,1,9.846-1.4c3.634-.324,7.423-.488,11.263-.488a120.153,120.153,0,0,1,12.3.606,74.1,74.1,0,0,1,11.04,1.906,29.352,29.352,0,0,1,8.273,3.336c2.22,1.422,3.567,3.07,4,4.9.224-.006.45-.009.67-.009,1.373,0,2.681.107,3.732.193l.146.012c1.137.093,2.21.181,3.286.181a13.032,13.032,0,0,0,4.238-.636c.225-2.015,1.452-3.89,3.645-5.572A27.716,27.716,0,0,1,145.3,3.2,62.427,62.427,0,0,1,155.843.8a77.524,77.524,0,0,1,10.9-.8,44.906,44.906,0,0,1,9.509.875,17.234,17.234,0,0,1,2.629.456,3.268,3.268,0,0,1,1,.358c.348.051.713.108,1.086.17a2.613,2.613,0,0,1,1.6.924,3.433,3.433,0,0,1,.73,1.7,3.213,3.213,0,0,1-1.543,3.414A4.9,4.9,0,0,0,179.6,9.885a4,4,0,0,0-.381,2.891,3.225,3.225,0,0,1-.145,2.038,2.969,2.969,0,0,1-1.2,1.358A61.773,61.773,0,0,1,175.8,31.329a33.169,33.169,0,0,1-2.889,7.067,25.356,25.356,0,0,1-4.725,6.093,26.7,26.7,0,0,1-6.508,3.188,20.405,20.405,0,0,1-6.257,1.019,17.539,17.539,0,0,1-7.6-1.7,18.5,18.5,0,0,1-6.151-4.777,21.831,21.831,0,0,1-2.918-4.462,25.639,25.639,0,0,1-1.937-5.4,30.525,30.525,0,0,1-.8-6.219,36.709,36.709,0,0,1,.479-6.907,2.247,2.247,0,0,1-.666-.714c-.107-.174-.211-.362-.325-.593a10.64,10.64,0,0,0-4.929-.98,15.049,15.049,0,0,0-2.059.142c-3.24.449-4.559,1.82-6.086,3.408-.229.238-.465.483-.714.731a2.223,2.223,0,0,1-1.574,1.172l-.1.546a85.713,85.713,0,0,1-2.853,12.446,32.209,32.209,0,0,1-2.565,5.808,23.3,23.3,0,0,1-3.89,5.072A23.942,23.942,0,0,1,94.182,52.8Zm1.107-41.734a57.534,57.534,0,0,0-9.792.685,24.477,24.477,0,0,0-9.1,3.37c-2.287,1.163-3.088,3.441-3.862,5.645a20.582,20.582,0,0,1-1.112,2.742,5.916,5.916,0,0,1-1.8,2.15,30.22,30.22,0,0,0,3.152,10.017,26.941,26.941,0,0,0,5.781,7.487,24.926,24.926,0,0,0,7.475,4.69,22.117,22.117,0,0,0,8.232,1.624h0a19.567,19.567,0,0,0,6.672-1.151,19.078,19.078,0,0,0,6.033-3.553,22.385,22.385,0,0,0,4.872-6.105,31.876,31.876,0,0,0,3.192-8.806,61.739,61.739,0,0,0,1.747-9.616c-.742-.653-1.436-1.3-2.107-1.923a30.254,30.254,0,0,0-6.072-4.751A22.2,22.2,0,0,0,99.2,11.1l-.364,0C97.678,11.083,96.483,11.067,95.289,11.067Zm43.505,9.907a43.77,43.77,0,0,0,.914,7.52,29.5,29.5,0,0,0,2.479,7.233,16.678,16.678,0,0,0,4.458,5.624,12.912,12.912,0,0,0,6.848,2.694c.63.054,1.267.082,1.892.082A18.144,18.144,0,0,0,161.9,42.99a11.316,11.316,0,0,0,5.094-3.748,28.538,28.538,0,0,0,3.121-5.487,36.176,36.176,0,0,0,1.969-5.983,55.6,55.6,0,0,0,1.378-12.438,11.5,11.5,0,0,1-2.446-4.111,8.127,8.127,0,0,0-1.83-3.123,6.341,6.341,0,0,0-4.465-1.313c-.475,0-.992.023-1.538.069a41.152,41.152,0,0,0-9.586,1.618,18.824,18.824,0,0,0-5.784,2.862,12.88,12.88,0,0,0-3.127,3.4,21.355,21.355,0,0,0-1.615,3.241c-.786,1.854-1.354,3.193-3.017,3.193A4.662,4.662,0,0,1,138.794,20.974Z" fill="#1d293f"/></g></g><g transform="translate(0 170.612)"><path d="M65.3,309.82a3.27,3.27,0,0,1-1.514-.371l-.109-.06-.184-.105a3.67,3.67,0,0,1-1.475-1.717,3.046,3.046,0,0,1-.135-2.245,50.524,50.524,0,0,0,1.6-5.751c.4-1.676.805-3.408,1.362-5.065l-.943.422-1.244.543a122.854,122.854,0,0,1-15.616,5.73,59.955,59.955,0,0,1-16.31,2.464,42.51,42.51,0,0,1-11.112-1.438,29.131,29.131,0,0,1-9.1-4.147,21.178,21.178,0,0,1-6.669-7.367,29.9,29.9,0,0,1-3.036-9.49,75.175,75.175,0,0,1-.772-9.992,156.677,156.677,0,0,1,1.3-24.567A149.368,149.368,0,0,1,4.3,230.306a4.044,4.044,0,0,1-1.337-2.578c-.517-4.176.124-8.507.744-12.7l0-.011c.14-.95.286-1.933.413-2.888.707-5.306,1.438-10.193,2.233-14.942,1.73-10.336,3.716-20.414,5.9-29.954,1.99-8.685,4.348-17.505,7.01-26.218,2.6-8.518,5.562-17.155,8.8-25.672l.563-1.474c3.347-8.712,6.563-16.167,9.832-22.792A158.325,158.325,0,0,1,51.019,69.7a96.472,96.472,0,0,1,7.238-9.217,55.211,55.211,0,0,1,8.657-7.855,74.918,74.918,0,0,1,19.962-9.961,108.3,108.3,0,0,1,10.738-3.05c3.519-.809,7.214-1.48,10.981-1.993,1.117-.152,2.262-.3,3.369-.439,6.441-.82,13.1-1.669,19.062-4.293a3.28,3.28,0,0,1-.209-2.588,4.008,4.008,0,0,1,1.574-2.135,112.07,112.07,0,0,0,12.387-10.052c.577-.516,1.174-1.049,1.765-1.573a1.3,1.3,0,0,1,.869-.345,1.323,1.323,0,0,1,1.112.633,1.229,1.229,0,0,1,.007,1.248,50.9,50.9,0,0,1-5.184,8.216c-1.287,1.6-2.661,3.1-3.954,4.481a76.175,76.175,0,0,1,9.136,10.078l.172.215c.875,1.089,1.749,2.2,2.594,3.279a117.249,117.249,0,0,0,8.493,10.023,36.415,36.415,0,0,0,6.381,5.207,35.593,35.593,0,0,0,7.392,3.582l1.08.376a42.83,42.83,0,0,1,7.952,3.565,17.487,17.487,0,0,1,6.193,5.969,1.116,1.116,0,0,1,0,1.148,1.235,1.235,0,0,1-1.042.64,1.081,1.081,0,0,1-.576-.169c-3.356-2.081-7.158-3.121-10.834-4.127-2.1-.574-4.266-1.167-6.341-1.948a40.833,40.833,0,0,1-7.787-3.936,46.074,46.074,0,0,1-6.833-5.442,117.479,117.479,0,0,1-9.658-10.947l-.015-.019c-.615-.759-1.251-1.543-1.881-2.312a99.8,99.8,0,0,0-12.012-12.143A45.984,45.984,0,0,1,121.107,39c-3.611,1.258-7.35,2.214-11.512,3.246l-.852.211c-4.558,1.13-8.258,2.16-11.644,3.243a98.6,98.6,0,0,0-11.282,4.32,91.78,91.78,0,0,0-9.5,4.984,54.447,54.447,0,0,0-8.6,6.384C61.965,66.681,57.516,73.516,53.8,79.506a174.648,174.648,0,0,0-11.616,22.415c-2.972,6.807-5.854,14.3-9.07,23.587-2.842,8.207-5.5,16.642-7.9,25.069-2.38,8.359-4.569,16.927-6.5,25.469-1.9,8.406-3.5,17-4.884,26.264-.625,4.195-1.194,8.49-1.689,12.766-.128,1.1-.233,2.233-.335,3.327v.009a48.767,48.767,0,0,1-1.707,10.281,3.808,3.808,0,0,1-1.336,1.973,3.212,3.212,0,0,1-1.923.62c-.055,0-.111,0-.166,0l-.287,3.6c-.366,4.611-.734,9.522-.856,14.413-.218,8.771-.065,16.629.467,24.022l.081,1.091a44.164,44.164,0,0,0,1.451,8.928,17.337,17.337,0,0,0,4.4,7.754,19.553,19.553,0,0,0,8.234,4.583,34.889,34.889,0,0,0,9.419,1.32c.2,0,.39,0,.579,0a51.21,51.21,0,0,0,10-1.042,73.976,73.976,0,0,0,9.777-2.716,193.648,193.648,0,0,0,18.691-7.994l1.56-.733c6.386-2.995,12.858-6.237,19.237-9.635,6.212-3.309,12.518-6.864,18.743-10.566s12.487-7.591,18.637-11.573c2.987-1.935,6-3.937,8.97-5.951.592-.4,1.182-.824,1.753-1.232h0c1.062-.759,2.16-1.544,3.287-2.211a2.784,2.784,0,0,1-.842-1.449,2.19,2.19,0,0,1,.326-1.67,17.063,17.063,0,0,1-3.221-3.824,24.064,24.064,0,0,1-2.228-4.645,33.64,33.64,0,0,1-1.879-9.916,82.384,82.384,0,0,1,.883-13.036l0-.023c.083-.683.168-1.389.25-2.082.306-2.609.682-5.184,1.043-7.578.063-.418.118-.834.176-1.276.079-.6.162-1.223.264-1.836-6.68,3.675-13.593,7.224-20.545,10.548-6.859,3.279-13.96,6.437-21.105,9.384-7.07,2.917-14.334,5.6-22.209,8.208l-1.521.5c-4.3,1.411-7.628,2.43-10.778,3.306-3.975,1.1-7.559,1.941-10.958,2.557a.37.37,0,0,1-.067.006.446.446,0,0,1-.416-.35.3.3,0,0,1,.19-.35c4.754-2.1,9.695-4.012,14.473-5.861,2.42-.937,4.922-1.9,7.368-2.885l1.195-.487a2.389,2.389,0,0,1-.428-.062c-3.017-.729-6.056-1.75-8.995-2.738l-.007,0c-1.206-.405-2.452-.824-3.672-1.214s-2.511-.741-3.76-1.08a41.42,41.42,0,0,1-8.108-2.812.254.254,0,0,1-.141-.289.33.33,0,0,1,.29-.262c.408-.028.837-.043,1.272-.043a44.726,44.726,0,0,1,8.483,1.127c.95.188,1.847.365,2.744.522l1.5.263c2.3.406,4.976.894,7.59,1.545a3.213,3.213,0,0,1,1.226-2.177c6.1-4.523,6.611-12.865,7.062-20.225v0c.092-1.508.18-2.932.312-4.3l.582-6.014c.987-10.152,2.089-20.946,3.75-31.5a.4.4,0,0,1,.419-.349.513.513,0,0,1,.534.478c.058,8.872-.389,17.867-.822,26.565-.2,4-.4,8.131-.559,12.2l-.076,2.121-.011.334c-.266,7.873-.541,16.013-5.489,22.066a2.036,2.036,0,0,1,1.011-.281,1.546,1.546,0,0,1,1.207.547,4.145,4.145,0,0,1,1.089,2.684c4.366-1.833,8.923-3.8,13.542-5.849,7.094-3.147,14.3-6.566,21.431-10.162,6.934-3.5,13.974-7.258,20.924-11.175a2.625,2.625,0,0,1,3.623.922l.106-.015a.457.457,0,0,1,.054,0l.1,0h.012a4.157,4.157,0,0,1,2.029-.5,6.371,6.371,0,0,1,4.213,1.745c.04.039.077.081.11.119l.025.029a22.332,22.332,0,0,0,5.855-3.843,47.062,47.062,0,0,0,5.078-5.461c1.426-1.777,2.853-3.759,4.362-6.057,1.235-1.883,2.445-3.851,3.615-5.755,1.775-2.888,3.61-5.874,5.6-8.67a50.186,50.186,0,0,1,6.676-7.784,40.094,40.094,0,0,1,9.032-6.25,55.017,55.017,0,0,1,10.261-3.939.7.7,0,0,1,.192-.575.989.989,0,0,1,.679-.388.966.966,0,0,1,.415.112.168.168,0,0,1,.075.071l.691-1.183c.5-.855.789-1.319.9-1.459.8-1.007,1.631-2.019,2.473-3.007a21.344,21.344,0,0,1,4.931-4.473,9.327,9.327,0,0,1,5.03-1.393,25.237,25.237,0,0,1,7.595,1.659l.057.019c1.668.545,3.359,1.112,5,1.659l.044.015c.86.288,1.749.585,2.623.876l.263.086.492.156a13.7,13.7,0,0,1,2.622,1.023,4,4,0,0,1,2.1,4.424,86.082,86.082,0,0,1,21.2-2.527,110.672,110.672,0,0,1,17.617,1.463,128.308,128.308,0,0,1,17,3.98,2.137,2.137,0,0,1,1.5,1.5,129.146,129.146,0,0,1,2.105,15.73,102.74,102.74,0,0,1-.1,15.863,89.72,89.72,0,0,1-2.175,13.486,72.938,72.938,0,0,1-4.434,12.909l-.216.471a56.548,56.548,0,0,1-7.038,11.838,28.046,28.046,0,0,1-4.9,4.843,18,18,0,0,1-5.94,3.012,25.457,25.457,0,0,1-6.986.83c-2.046,0-4.125-.148-6.136-.291-1.055-.075-2.147-.153-3.2-.206-1.163-.059-2.353-.107-3.5-.153h0a104.4,104.4,0,0,1-12.086-.96,19.251,19.251,0,0,1-6.348-2.124,16.1,16.1,0,0,1-5.04-4.368c-2.45-3.228-3.739-7.165-4.766-10.938-.553.176-1.007.335-1.428.5a15.706,15.706,0,0,0-5.184,3.5c-1.452,1.408-2.779,2.979-4.061,4.5a50.672,50.672,0,0,1-4.993,5.361,38.328,38.328,0,0,1-10.217,6.385A66.888,66.888,0,0,1,182,230.526c-3.306.862-6.716,1.567-10.013,2.249l-.028.006c-1.419.294-2.887.6-4.327.909l-.568.124c-2.564.563-5.923,1.346-9.168,2.4a43.072,43.072,0,0,0-8.628,3.791,3.692,3.692,0,0,1-1.22,2.405,3.073,3.073,0,0,1,.932,1.662,2.762,2.762,0,0,1-.412,1.989c-1.959,3.112-5.13,5.121-8.2,7.063l0,0c-.593.376-1.207.765-1.8,1.153l-.236.156c-3.546,2.354-7.173,4.694-10.78,6.954-7.064,4.429-14.428,8.731-22.511,13.152-6.277,3.433-12.532,6.714-18.591,9.752-6.386,3.2-12.764,6.238-18.959,9.026a42.222,42.222,0,0,1,.631,6.3,51.718,51.718,0,0,0,.43,5.16l.088.542a3.686,3.686,0,0,1-1.056,3.508l-.1.094,0-.013-.091.084-.03.026.01-.008a3.27,3.27,0,0,1-.344.279l-.15.1A3.03,3.03,0,0,1,65.3,309.82Zm73.156-112.944c0,.312.006.634.007.917,0,.461,0,.9.015,1.33.052,1.968.078,4.066.078,6.236,0,1.572-.03,3.169-.06,4.714-.053,2.737-.107,5.567.009,8.347a37.257,37.257,0,0,0,.643,5.807,19.726,19.726,0,0,0,1.906,5.5,14.814,14.814,0,0,0,2.347,3.243,22.118,22.118,0,0,0,2.949,2.546,47.9,47.9,0,0,1,8.4-4,80.933,80.933,0,0,1,8.989-2.689c2.4-.585,4.864-1.116,7.245-1.629h0a135.457,135.457,0,0,0,14.849-3.794,39.038,39.038,0,0,0,9.809-4.786,41.071,41.071,0,0,0,7.547-7.408l.026-.03.59-.688.393-.454c2.5-2.869,5.317-5.747,9-7.368a27.638,27.638,0,0,1,3.89-1.253,16.961,16.961,0,0,0,6.087-2.5c1.4-1.093,1.541-2.647,1.69-4.293l.009-.1a8.367,8.367,0,0,1-1.2.08,21.667,21.667,0,0,1-2.978-.28H220.7c-.385-.054-.783-.11-1.167-.155l-.9-.106a36.653,36.653,0,0,1-4.884-.832.32.32,0,0,1,0-.611,40.614,40.614,0,0,1,5.551-.91l.237-.028.462-.058c.226-.03.457-.062.681-.093h.005a21.938,21.938,0,0,1,2.98-.277,7.823,7.823,0,0,1,1.729.176,14.78,14.78,0,0,1,1.4-3.473c.27-.485.607-.983.965-1.51a9.342,9.342,0,0,0,1.839-3.783,3.054,3.054,0,0,0-.325-1.713l-.091-.168a1.424,1.424,0,0,0-.433-.523.371.371,0,0,1-.164.084,2.637,2.637,0,0,1-3.137-1.25,49.612,49.612,0,0,1-5.376.266c-.919.012-1.786.024-2.623.061l-2.5.121c-.824.038-1.909.081-2.994.081a23.533,23.533,0,0,1-4.993-.446.443.443,0,0,1-.32-.406.382.382,0,0,1,.214-.4,36.078,36.078,0,0,1,8.822-2.056c.438-.065.892-.132,1.328-.2,1.23-.189,2.486-.351,3.7-.507l.03,0c.6-.077,1.222-.157,1.832-.24.395-.053.807-.119,1.2-.183h0a24.853,24.853,0,0,1,2.614-.325,7.413,7.413,0,0,0,1.522-3.369,8.269,8.269,0,0,0-.163-3.586,8.054,8.054,0,0,0-1.573-3.059,6.754,6.754,0,0,0-2.77-2.006,4.912,4.912,0,0,1-2.045.406,14.61,14.61,0,0,1-1.749-.143H219.6c-.342-.041-.7-.084-1.062-.116-1.974-.169-3.608-.248-5.142-.248h-.187a44.1,44.1,0,0,0-4.419.324,43.492,43.492,0,0,1-4.563.327,16.541,16.541,0,0,1-1.894-.1.941.941,0,0,1-.754-.638.6.6,0,0,1,.218-.66,13.32,13.32,0,0,1,4.731-2.352,35.9,35.9,0,0,1,5.277-1.048l.711-.1c.311-.041.644-.087.966-.132.924-.129,1.97-.274,3.035-.371a2.279,2.279,0,0,1,1.8-1.246c.238-.033.479-.053.713-.073l.078-.007,0-.026a1.591,1.591,0,0,0,1.325-.8,5.641,5.641,0,0,0,.147-4.351,4.95,4.95,0,0,0-3.218-2.685,14.738,14.738,0,0,0-4.594-.613c-.677,0-1.378.026-2.205.082a65.677,65.677,0,0,0-11.892,1.9,52.025,52.025,0,0,0-11.248,4.241,34.812,34.812,0,0,0-9.245,7.169,65.143,65.143,0,0,0-7.105,9.356l-.2.314c-.7,1.083-1.4,2.223-2.086,3.326l0,.007c-1.766,2.849-3.591,5.8-5.66,8.491a31.647,31.647,0,0,1-7.141,7.033,33.579,33.579,0,0,1-11.378,5.311,2.087,2.087,0,0,1-1.33,1.026l-.277.064a17.311,17.311,0,0,1-3.519.423A9.382,9.382,0,0,1,138.457,196.876ZM72.912,219.722a1.768,1.768,0,0,1-.124.169l-.068.079.355-.144Zm169.9-76.785c-3.992,0-8.057.108-11.878.218a6.483,6.483,0,0,1-2.212,3.113,6.08,6.08,0,0,1-3.508,1.381,10.3,10.3,0,0,1,1.614,4.937,10.89,10.89,0,0,1-.841,5.071,13.5,13.5,0,0,1,3.927,2.389,12.568,12.568,0,0,1,2.9,3.723,13.02,13.02,0,0,1,1.126,3.1,12.7,12.7,0,0,1,.3,3.159,13.485,13.485,0,0,1-1.672,6.032,8.161,8.161,0,0,1,2.037,2.983,8.728,8.728,0,0,1,.645,3.615c-.1,2.395-1.369,4.473-2.593,6.483-.158.259-.321.526-.477.788a14.175,14.175,0,0,0-1.722,5.808c-.067.475-.137.965-.221,1.475a9.305,9.305,0,0,1-2.341,4.876,13.019,13.019,0,0,1-4.438,3.022l.183.722a36.628,36.628,0,0,0,1.649,5.176,13.762,13.762,0,0,0,2.887,4.478c3.026,3.018,7.627,3.217,11.685,3.392l.972.043.208.01c3.222.161,6.5.348,9.662.529h.031l2.167.123,2.965.166c.93.051,2.026.1,3.1.1a19.358,19.358,0,0,0,4.976-.548,11.849,11.849,0,0,0,4.556-2.288,34.919,34.919,0,0,0,7.716-9.273,64.571,64.571,0,0,0,5.141-10.988,73.883,73.883,0,0,0,3.165-11.582,87.126,87.126,0,0,0,1.385-11.917,105.659,105.659,0,0,0-.126-12.034c-.254-3.853-.715-7.868-1.369-11.934a131.3,131.3,0,0,0-26.21-5.632A142.112,142.112,0,0,0,242.813,142.937Zm-30.235-.789a22.088,22.088,0,0,1,5.4.606,13.013,13.013,0,0,1,4.7,2.188l.016-.029c.008-.015.015-.029.025-.043a11.853,11.853,0,0,1,1.492-1.749l.018-.018c.051-.048.1-.1.156-.155l.3-.321-.688-.238c-1.048-.371-2.225-.816-2.929-1.081-.284-.107-.488-.184-.568-.213l-.019-.007-.96-.325h0c-1.532-.519-3.117-1.055-4.668-1.605-.277-.1-.55-.2-.839-.309a11.257,11.257,0,0,0-3.85-.956,4.786,4.786,0,0,0-.764.06,9.089,9.089,0,0,0-3.615,1.6,35.432,35.432,0,0,0-3.3,2.674l0,0c-.577.506-1.121.985-1.661,1.422l1.272-.247A56.518,56.518,0,0,1,212.578,142.148ZM298.384,309.4a1.362,1.362,0,0,1-.848-.292,1.243,1.243,0,0,1-.461-.864l-.2-1.951A33.1,33.1,0,0,0,295.478,299a40.246,40.246,0,0,1-1.775-8.618c-.521-4.614-.752-9.346-.945-13.8l-.137-3.185c-.43-9.953-.614-19.679-.545-28.91.074-9.909.44-19.631,1.089-28.895l.1-1.373c.408-5.564.807-9.826,1.293-13.817.622-5.111,1.377-9.641,2.31-13.847,2.269-10.233,5.629-18.643,10.272-25.712a.335.335,0,0,1,.286-.159.352.352,0,0,1,.276.132.329.329,0,0,1,.056.287c-2.335,9.579-4.706,19.871-6.226,30.237-.6,4.073-1.055,8.242-1.4,12.746-.306,4.012-.514,8.2-.637,12.8-.227,8.543-.113,17.239,0,25.648v.082c.018,1.42.038,2.887.055,4.33l.011.959c.1,8.873.251,19.371.6,29.965.04,1.218.091,2.46.14,3.661.154,3.786.313,7.7.178,11.53a34.249,34.249,0,0,1-.582,4.605c-.193,1.117-.393,2.272-.5,3.431a40.039,40.039,0,0,0,.025,5.926c.02.376.043.8.063,1.213a1.094,1.094,0,0,1-.275.831A1.114,1.114,0,0,1,298.384,309.4Zm49.7-.835a4.014,4.014,0,0,1-2.9-1.185,2.887,2.887,0,0,1-.78-2.215,300.578,300.578,0,0,0,.747-33.256c-.5-10.984-1.542-22.162-3.1-33.224-.969-6.875-2.311-13.8-3.61-20.5-.453-2.337-.922-4.754-1.37-7.15l-.27-1.454c-1.348-7.31-2.758-14.735-4.122-21.916l0-.013-.293-1.544-2.219-11.712c-3.032-15.982-6.6-34.538-10.551-52.514l-.227-1.025a162.349,162.349,0,0,0-7.453-25.115,95.1,95.1,0,0,0-5.651-11.823,71.667,71.667,0,0,0-7.426-10.7,60.134,60.134,0,0,0-4.5-4.765c-1.523-1.447-3.172-2.864-4.9-4.212a84.748,84.748,0,0,0-10.753-7.07c-3.375-1.894-7.171-3.781-11.606-5.771-4.068-1.825-8.26-3.554-11.959-5.079a.582.582,0,0,1-.367-.66.5.5,0,0,1,.5-.419.688.688,0,0,1,.158.02l1.283.307c8.944,2.145,18.428,4.6,27.416,8.9a59.058,59.058,0,0,1,12.142,7.772,64.085,64.085,0,0,1,9.987,10.4,88.3,88.3,0,0,1,12.908,24.491,203.987,203.987,0,0,1,7.12,26.9c2,9.641,3.941,19.461,5.821,28.957,2.062,10.417,4.194,21.188,6.4,31.761l.784,3.765c2.347,11.3,4.076,20.022,5.605,28.269,1.91,10.3,3.452,19.6,4.713,28.436l.2,1.381a293.305,293.305,0,0,1,2.85,29.725c.2,5.186.191,10.212-.021,14.938a140.911,140.911,0,0,1-1.429,14.825,2.763,2.763,0,0,1-1.108,1.88A3.4,3.4,0,0,1,348.083,308.56ZM212.475,292.02a2.141,2.141,0,0,1-2.047-1.465,24.849,24.849,0,0,1-.967-7.286c-.011-2.513.206-5.044.417-7.49v-.007c.062-.719.12-1.4.173-2.078l.326-4.2c.289-3.765.618-8.207.873-12.6.338-5.812.62-11.73.875-17.26.082-1.778.173-3.612.277-5.607l.152-2.8c.017-.308.032-.624.046-.93a16.952,16.952,0,0,1,1.044-6.154.766.766,0,0,1,.73-.434.9.9,0,0,1,.8.434c1.043,1.928,1.255,4.388,1.441,6.559v.011c.02.233.041.475.062.708l.023.249c.335,3.548.544,6.277.675,8.852.286,5.614.422,11.272.405,16.817-.02,6.448-.166,12.087-.444,17.241l-.084,1.539a66.75,66.75,0,0,1-.781,7.7,23.543,23.543,0,0,1-2.345,7.226A1.832,1.832,0,0,1,212.475,292.02ZM18.259,252.041a.237.237,0,0,1-.072-.011,2.111,2.111,0,0,1-1.382-1.091,3.563,3.563,0,0,1,.312-2.817,38.945,38.945,0,0,1,5.327-8.086l.035-.044.583-.746a74.38,74.38,0,0,1,6.878-7.658l.723-.7c.279-.274.564-.562.866-.867a27.385,27.385,0,0,1,3.295-2.989,6.626,6.626,0,0,1,3.856-1.471c.1,0,.2,0,.292.009a1.974,1.974,0,0,1,1.871,2.46c-.453,2.153-2.256,3.49-4,4.783-.5.369-.967.718-1.41,1.086-2.224,1.851-4.289,3.8-6.385,5.8-1.8,1.716-3.551,3.5-5.36,5.447l-.649.7c-.11.12-.343.349-.639.638l0,0c-1.4,1.374-4.322,4.232-3.928,5.088l.026.046a.245.245,0,0,1,.007.258A.287.287,0,0,1,18.259,252.041ZM189.27,196.307a4.06,4.06,0,0,1-2.851-1.211,6.47,6.47,0,0,1-1.655-2.9,12.01,12.01,0,0,1-.252-3.385,9.73,9.73,0,0,0-.439-3.886,11.165,11.165,0,0,0-.985-1.741,11.7,11.7,0,0,1-.969-1.7,11.21,11.21,0,0,1-.863-3.778,9.672,9.672,0,0,1,.588-3.2c.466-1.562.947-3.177.223-4.508a.934.934,0,0,1,.04-.892.675.675,0,0,1,.59-.356h.017l.066,0a3.839,3.839,0,0,1,2.335,1.17,5.217,5.217,0,0,1,1.276,2.357,21.563,21.563,0,0,1,.441,2.528,10.265,10.265,0,0,0,1.5,4.806,13.987,13.987,0,0,1,2.894,7.364c.03.38.047.765.064,1.138v.005a14.177,14.177,0,0,0,.263,2.527l.2.845a7.93,7.93,0,0,1,.279,2.738,2.016,2.016,0,0,1-1.41,1.854A4.417,4.417,0,0,1,189.27,196.307Zm-85.534-44.341a33.387,33.387,0,0,1-5.179-.363.428.428,0,0,1-.375-.418.584.584,0,0,1,.375-.6,59.506,59.506,0,0,1,10.434-1.821c.8-.091,1.624-.185,2.43-.285,3.734-.464,8.646-1.095,13.522-1.857s9.261-1.509,13.441-2.288c2.006-.374,4.041-.77,6.047-1.177.427-.087.857-.2,1.313-.312a13.038,13.038,0,0,1,3.122-.531,4.45,4.45,0,0,1,1.655.291,1.676,1.676,0,0,1,1.04,1.181,1.35,1.35,0,0,1-.4,1.256c-1.216,1.22-2.914,1.478-4.555,1.727-.316.048-.643.1-.959.153l-.172.031c-2.279.422-4.616.833-6.945,1.219-4.438.736-8.853,1.377-13.121,1.906-5.05.626-9.482,1.093-13.55,1.43l-1.752.144C108.074,151.815,105.9,151.966,103.736,151.966Zm109.081-20.878a1.579,1.579,0,0,1-1.377-.792,36.622,36.622,0,0,1-3.54-9.618c-.438-1.653-.892-3.361-1.45-4.99-.728-2.125-1.518-4.268-2.282-6.34v0c-.94-2.55-1.911-5.184-2.776-7.808a58.954,58.954,0,0,1-2.353-9.462,36.466,36.466,0,0,1-.287-9.686l-.02-.034a.8.8,0,0,1-.044-.079l-.514-1.127A24.484,24.484,0,0,0,192.865,73c-.648-.618-1.319-1.227-1.969-1.817a35.21,35.21,0,0,1-5.674-6.036,13.982,13.982,0,0,1-1.867-3.9,16.405,16.405,0,0,1-.659-4.023,43.729,43.729,0,0,1,.7-8.283c.252-1.7.512-3.458.642-5.182l.063-.894c.114-1.727.1-3.626-.834-4.62-.791-.84-2.336-1.233-3.7-1.581-.55-.14-1.069-.272-1.493-.423a83.011,83.011,0,0,1-11.142-4.813,70.7,70.7,0,0,1-9.773-6.112L155.6,24.153a27.436,27.436,0,0,1-6.647-6.406.4.4,0,0,1,0-.413.412.412,0,0,1,.349-.233.336.336,0,0,1,.127.025,39.229,39.229,0,0,1,5.912,3.252l.006,0c.625.392,1.271.8,1.91,1.181a3.133,3.133,0,0,1,.139-.285,32.673,32.673,0,0,0,3.373-9.054,34.01,34.01,0,0,0,.607-9.648A2.324,2.324,0,0,1,161.94.765,2.584,2.584,0,0,1,163.85,0a3.041,3.041,0,0,1,1.9.645,2.665,2.665,0,0,1,.99,1.931,38.127,38.127,0,0,1-4.712,21.411c-.018.031-.036.061-.055.089l-.029.046c2.626,1.369,4.813,2.423,6.881,3.316,3.21,1.387,6.2,2.521,9.131,3.465.793.255,1.62.463,2.5.682,2.178.546,4.429,1.11,6.118,2.457a8.031,8.031,0,0,1,2.473,3.41,12.981,12.981,0,0,1,.808,4.266,41.721,41.721,0,0,1-.957,8.865c-.059.322-.12.653-.177.974l-.149.841c-.467,2.693-.826,5.543.335,8.189,1.131,2.579,3.3,4.525,5.395,6.407l.024.021.534.48.45.408a29.746,29.746,0,0,1,5.669,6.42,38.878,38.878,0,0,1,4.37-6.622l.006-.008c.211-.276.428-.562.645-.848,1.1-1.451.669-2.126-.042-3.244-.167-.262-.355-.559-.542-.893a9.578,9.578,0,0,1-1.014-2.615A7.672,7.672,0,0,1,204.3,57.3a8.355,8.355,0,0,1,.8-2.485,10.822,10.822,0,0,1,1.444-2.148,19.756,19.756,0,0,1,3.956-3.415,69.911,69.911,0,0,1,6.059-3.563c1.472-.8,2.993-1.627,4.443-2.518A143.417,143.417,0,0,0,241.2,28.323a.209.209,0,0,1,.141-.054.236.236,0,0,1,.2.118.181.181,0,0,1-.014.192A78.777,78.777,0,0,1,223.792,48c-2.447,1.9-5.056,3.554-7.58,5.156-.476.3-.905.575-1.335.849l-.872.56a8.165,8.165,0,0,0-3.288,3.19c-.422,1.03.172,1.881.747,2.7.18.257.365.523.517.79a8.331,8.331,0,0,1,.978,2.622,7.177,7.177,0,0,1,0,2.527,10.787,10.787,0,0,1-2.33,4.745l-.111.139c-2.413,2.977-4.194,5.718-5.045,9.416a29.649,29.649,0,0,0,.007,12.19,77.653,77.653,0,0,0,3.423,11.821l.107.3c.355.989.721,1.994,1.075,2.965l0,.012c1.1,3.027,2.245,6.156,3.205,9.288l.349,1.145c1.156,3.828,2.087,7.588.8,11.487A1.717,1.717,0,0,1,212.817,131.088Zm14.393-54.6c-.353,0-.713-.013-1.07-.04a14.406,14.406,0,0,1-6.049-1.737,13.346,13.346,0,0,1-2.133-1.7c-1.362-1.237-2.77-2.515-4.328-2.515a2.815,2.815,0,0,0-.873.14.252.252,0,0,1-.078.012.323.323,0,0,1-.285-.221.247.247,0,0,1,.075-.286,3.619,3.619,0,0,1,2.346-.857c1.558,0,3.155.925,4.7,1.82a15.388,15.388,0,0,0,2.891,1.431,11.254,11.254,0,0,0,12.376-3.906,125.767,125.767,0,0,0,8.6-12.569,60.979,60.979,0,0,0,3.591-6.731,22.987,22.987,0,0,0,1.271-4.094,29.734,29.734,0,0,1,.9-3.17A3.065,3.065,0,0,1,250.4,40.5a3.506,3.506,0,0,1,1.84-.522,2.888,2.888,0,0,1,2.109.838,2.671,2.671,0,0,1,.67,2.042,21.063,21.063,0,0,1-2.1,7.069q-.138.321-.276.642l-.113.267a49.473,49.473,0,0,1-3.884,7.411A94.149,94.149,0,0,1,238.721,71a17.668,17.668,0,0,1-5.2,4A14.13,14.13,0,0,1,227.21,76.487Zm26.174-38.317a2.734,2.734,0,0,1-1.887-.834A53.369,53.369,0,0,1,245.762,31a26.013,26.013,0,0,1-4.1-7.44.454.454,0,0,1,.072-.415.547.547,0,0,1,.432-.229.434.434,0,0,1,.241.072,37.131,37.131,0,0,1,4.029,3.2l0,0c.605.528,1.231,1.074,1.858,1.587,2.174,1.78,4.377,3.531,6.548,5.207a3.1,3.1,0,0,1,1.136,1.576,2.708,2.708,0,0,1-.044,1.644A2.808,2.808,0,0,1,253.384,38.169ZM238.21,29.415a2.78,2.78,0,0,1-1.749-.634,18.618,18.618,0,0,1-6.073-8.941,19.714,19.714,0,0,1-.918-5.364,19.355,19.355,0,0,1,.6-5.458A2.407,2.407,0,0,1,232.5,7.111a3.005,3.005,0,0,1,2.31,1.077,2.461,2.461,0,0,1,.456,2.157l-.024.1a13.719,13.719,0,0,0,.3,7.921,14.567,14.567,0,0,0,4.547,6.495l.157.127a2.381,2.381,0,0,1,.845,1.2,2.072,2.072,0,0,1-.051,1.257A3.11,3.11,0,0,1,238.21,29.415Z" transform="translate(0.247 6.665)" fill="#1d293f"/><path d="M62.849,325.717h-.007a3.448,3.448,0,0,1-2.7-1.182,4.473,4.473,0,0,1-.909-3.56c.462-3.055.91-6.163,1.343-9.168v0l0-.012c.239-1.657.486-3.371.732-5.057a113.535,113.535,0,0,1-28.839,3.959,89.4,89.4,0,0,1-12.293-.833,79.679,79.679,0,0,1-12.094-2.644c-.189-.193-.26-.35-.21-.468.086-.206.521-.3,1.369-.3.317,0,.648.012.988.026l.079,0c.292.012.567.023.79.023a1.837,1.837,0,0,0,.452-.036,23.736,23.736,0,0,1-7.775-8.731,28.924,28.924,0,0,1-2.115-5.308,39.023,39.023,0,0,1-1.188-5.74A67.737,67.737,0,0,1,.11,274.5c.2-4.123.628-8.2,1.043-12.152v-.007c.229-2.182.446-4.243.617-6.24,1.455-9.375,2.782-19.113,4.064-28.529v-.008c3.275-24.049,6.662-48.916,12.743-72.589,1.571-6.115,3.291-12.017,5.112-17.541,1.952-5.921,4.1-11.647,6.38-17.021,2.417-5.693,5.074-11.2,7.9-16.363A163.672,163.672,0,0,1,47.63,88.48a112.272,112.272,0,0,1,12.249-13.9A102.673,102.673,0,0,1,74.356,62.978,89.731,89.731,0,0,1,90.718,54.41a78.976,78.976,0,0,1,17.908-4.779l.687-.094c1.187-.158,2.421-.3,3.615-.44,6.258-.727,12.728-1.479,18.02-4.767a39.918,39.918,0,0,0,6.918-7.861,39.319,39.319,0,0,1,4.843-5.815,10.826,10.826,0,0,1,2.718-1.86,7.617,7.617,0,0,1,3.161-.723h.039a6.046,6.046,0,0,1,2.805.919c1.02.558,2.112,1.311,3.268,2.107,1.081.745,2.2,1.514,3.345,2.187a25.533,25.533,0,0,1,1.9-7.429,25.667,25.667,0,0,0,1.44-4.792l.045-.31c.111-.8.172-1.6.231-2.371.253-3.3.493-6.41,4.473-9.67a31.227,31.227,0,0,1,6.246-3.572,54.647,54.647,0,0,1,7.923-2.749A70.667,70.667,0,0,1,189.188.624,68.966,68.966,0,0,1,198.308,0a49.031,49.031,0,0,1,10.717,1.085,24.605,24.605,0,0,1,8.522,3.468,28.986,28.986,0,0,1,5.506,4.979A33.548,33.548,0,0,1,227,15.3a83.942,83.942,0,0,1,5.338,13.016c1.16,3.339,2.359,6.791,3.859,10.13a9.134,9.134,0,0,1,3.916-.8,14.67,14.67,0,0,1,7.059,1.941A11.612,11.612,0,0,1,249.9,41.71a6.91,6.91,0,0,1,1.6,2.621c1.092,1.327,1.577,4.062,2.045,6.706v0a25.766,25.766,0,0,0,1.2,5.015c3.462.55,6.821,1.248,9.982,2.074a86.235,86.235,0,0,1,8.933,2.848,73.783,73.783,0,0,1,7.951,3.579,66.285,66.285,0,0,1,7.036,4.267,63.083,63.083,0,0,1,6.189,4.914,63.805,63.805,0,0,1,5.408,5.518,68.37,68.37,0,0,1,4.7,6.079,77.021,77.021,0,0,1,4.049,6.6,98.068,98.068,0,0,1,6.429,14.586,152.78,152.78,0,0,1,4.651,16.156c2.5,10.673,4.253,21.978,6.117,35.668,2.49,14.028,5.921,28.3,9.239,42.1v0h0c2.153,8.951,4.378,18.207,6.334,27.338,2.194,10.243,3.806,19.228,4.926,27.468a215.512,215.512,0,0,1,2.093,27.656c.034,4.725-.121,9.408-.461,13.917-.357,4.732-.93,9.437-1.7,13.986a29.577,29.577,0,0,1,2.891,5.188,5.105,5.105,0,0,1,.692,2.75,5.748,5.748,0,0,1-.762,2.671,5,5,0,0,1-4.326,2.631h0c-.074,0-.149,0-.224-.005-1.478-.13-2.975-.275-4.422-.415h-.006c-3.677-.357-7.479-.726-11.254-.866-7.66-.266-15.908-.395-25.215-.395-5.427,0-11.324.043-18.557.134l-1.989.026c-29.519.367-59.521.885-88.536,1.386C151.623,324.658,106.87,325.431,62.849,325.717ZM223.971,161.132h0c-1.008,4.343.618,7.876,2.339,11.616a39.991,39.991,0,0,1,2.416,6.138,20.243,20.243,0,0,1,.116,5.82c-.056.828-.109,1.609-.116,2.244a11.315,11.315,0,0,0,1.36,3.857c.8,1.653,1.634,3.362,1.351,4.9-.665,3.614-2.437,7.243-4.15,10.753a50.734,50.734,0,0,0-3.752,9.1,16.035,16.035,0,0,0-.564,4.523,12.01,12.01,0,0,0,1,4.511c2.73,5.363,10.955,8.111,16.4,9.929l.027.009a24.033,24.033,0,0,0,4.775,1.249,33.823,33.823,0,0,0,5.34.406,43.6,43.6,0,0,0,15.892-3.08,32.154,32.154,0,0,0,6.762-3.646,19.559,19.559,0,0,0,4.876-4.867c2.2-3.264,4.653-9.745,6.626-14.952,1.214-3.2,2.261-5.968,3.044-7.493l.464-6.471c.54-7.6,1.113-16.271,1.071-23.039-.047-7.516-.839-11.7-2.422-12.8-3.517-2.44-8.563-4.248-15-5.373a107.543,107.543,0,0,0-18.27-1.383c-6.85,0-12.862.458-16.7.843a50.7,50.7,0,0,0-7.513,1.079c-.547.359-1.01.631-1.418.87a6.267,6.267,0,0,0-2.633,2.352c-1.085.144-2.192.3-3.289.451-.73.238-1.11.731-1.017,1.317a1.492,1.492,0,0,0,.6.927,2.169,2.169,0,0,0,1.321.415,2.992,2.992,0,0,0,1.06-.205Z" transform="translate(0 0)" fill="none"/></g></g></g></svg>